<?xml version="1.0" encoding="utf-8"?>
<svg xmlns="http://www.w3.org/2000/svg" xmlns:xlink="http://www.w3.org/1999/xlink" width="600" height="400" viewBox="0 0 2400 1600">
<defs>
  <clipPath id="clip480">
    <rect x="0" y="0" width="2400" height="1600"/>
  </clipPath>
</defs>
<path clip-path="url(#clip480)" d="M0 1600 L2400 1600 L2400 0 L0 0  Z" fill="#ffffff" fill-rule="evenodd" fill-opacity="1"/>
<defs>
  <clipPath id="clip481">
    <rect x="480" y="0" width="1681" height="1600"/>
  </clipPath>
</defs>
<path clip-path="url(#clip480)" d="M186.274 1486.45 L2352.76 1486.45 L2352.76 47.2441 L186.274 47.2441  Z" fill="#ffffff" fill-rule="evenodd" fill-opacity="1"/>
<defs>
  <clipPath id="clip482">
    <rect x="186" y="47" width="2167" height="1440"/>
  </clipPath>
</defs>
<polyline clip-path="url(#clip482)" style="stroke:#000000; stroke-linecap:round; stroke-linejoin:round; stroke-width:2; stroke-opacity:0.1; fill:none" points="247.59,1486.45 247.59,47.2441 "/>
<polyline clip-path="url(#clip482)" style="stroke:#000000; stroke-linecap:round; stroke-linejoin:round; stroke-width:2; stroke-opacity:0.1; fill:none" points="758.552,1486.45 758.552,47.2441 "/>
<polyline clip-path="url(#clip482)" style="stroke:#000000; stroke-linecap:round; stroke-linejoin:round; stroke-width:2; stroke-opacity:0.1; fill:none" points="1269.51,1486.45 1269.51,47.2441 "/>
<polyline clip-path="url(#clip482)" style="stroke:#000000; stroke-linecap:round; stroke-linejoin:round; stroke-width:2; stroke-opacity:0.1; fill:none" points="1780.48,1486.45 1780.48,47.2441 "/>
<polyline clip-path="url(#clip482)" style="stroke:#000000; stroke-linecap:round; stroke-linejoin:round; stroke-width:2; stroke-opacity:0.1; fill:none" points="2291.44,1486.45 2291.44,47.2441 "/>
<polyline clip-path="url(#clip482)" style="stroke:#000000; stroke-linecap:round; stroke-linejoin:round; stroke-width:2; stroke-opacity:0.1; fill:none" points="186.274,1445.67 2352.76,1445.67 "/>
<polyline clip-path="url(#clip482)" style="stroke:#000000; stroke-linecap:round; stroke-linejoin:round; stroke-width:2; stroke-opacity:0.1; fill:none" points="186.274,1106.24 2352.76,1106.24 "/>
<polyline clip-path="url(#clip482)" style="stroke:#000000; stroke-linecap:round; stroke-linejoin:round; stroke-width:2; stroke-opacity:0.1; fill:none" points="186.274,766.805 2352.76,766.805 "/>
<polyline clip-path="url(#clip482)" style="stroke:#000000; stroke-linecap:round; stroke-linejoin:round; stroke-width:2; stroke-opacity:0.1; fill:none" points="186.274,427.37 2352.76,427.37 "/>
<polyline clip-path="url(#clip482)" style="stroke:#000000; stroke-linecap:round; stroke-linejoin:round; stroke-width:2; stroke-opacity:0.1; fill:none" points="186.274,87.9355 2352.76,87.9355 "/>
<polyline clip-path="url(#clip480)" style="stroke:#000000; stroke-linecap:round; stroke-linejoin:round; stroke-width:4; stroke-opacity:1; fill:none" points="186.274,1486.45 2352.76,1486.45 "/>
<polyline clip-path="url(#clip480)" style="stroke:#000000; stroke-linecap:round; stroke-linejoin:round; stroke-width:4; stroke-opacity:1; fill:none" points="247.59,1486.45 247.59,1467.55 "/>
<polyline clip-path="url(#clip480)" style="stroke:#000000; stroke-linecap:round; stroke-linejoin:round; stroke-width:4; stroke-opacity:1; fill:none" points="758.552,1486.45 758.552,1467.55 "/>
<polyline clip-path="url(#clip480)" style="stroke:#000000; stroke-linecap:round; stroke-linejoin:round; stroke-width:4; stroke-opacity:1; fill:none" points="1269.51,1486.45 1269.51,1467.55 "/>
<polyline clip-path="url(#clip480)" style="stroke:#000000; stroke-linecap:round; stroke-linejoin:round; stroke-width:4; stroke-opacity:1; fill:none" points="1780.48,1486.45 1780.48,1467.55 "/>
<polyline clip-path="url(#clip480)" style="stroke:#000000; stroke-linecap:round; stroke-linejoin:round; stroke-width:4; stroke-opacity:1; fill:none" points="2291.44,1486.45 2291.44,1467.55 "/>
<path clip-path="url(#clip480)" d="M209.893 1517.37 Q206.282 1517.37 204.453 1520.93 Q202.648 1524.47 202.648 1531.6 Q202.648 1538.71 204.453 1542.27 Q206.282 1545.82 209.893 1545.82 Q213.527 1545.82 215.333 1542.27 Q217.161 1538.71 217.161 1531.6 Q217.161 1524.47 215.333 1520.93 Q213.527 1517.37 209.893 1517.37 M209.893 1513.66 Q215.703 1513.66 218.759 1518.27 Q221.837 1522.85 221.837 1531.6 Q221.837 1540.33 218.759 1544.94 Q215.703 1549.52 209.893 1549.52 Q204.083 1549.52 201.004 1544.94 Q197.949 1540.33 197.949 1531.6 Q197.949 1522.85 201.004 1518.27 Q204.083 1513.66 209.893 1513.66 Z" fill="#000000" fill-rule="nonzero" fill-opacity="1" /><path clip-path="url(#clip480)" d="M230.055 1542.97 L234.939 1542.97 L234.939 1548.85 L230.055 1548.85 L230.055 1542.97 Z" fill="#000000" fill-rule="nonzero" fill-opacity="1" /><path clip-path="url(#clip480)" d="M255.124 1517.37 Q251.513 1517.37 249.684 1520.93 Q247.879 1524.47 247.879 1531.6 Q247.879 1538.71 249.684 1542.27 Q251.513 1545.82 255.124 1545.82 Q258.758 1545.82 260.564 1542.27 Q262.393 1538.71 262.393 1531.6 Q262.393 1524.47 260.564 1520.93 Q258.758 1517.37 255.124 1517.37 M255.124 1513.66 Q260.934 1513.66 263.99 1518.27 Q267.069 1522.85 267.069 1531.6 Q267.069 1540.33 263.99 1544.94 Q260.934 1549.52 255.124 1549.52 Q249.314 1549.52 246.235 1544.94 Q243.18 1540.33 243.18 1531.6 Q243.18 1522.85 246.235 1518.27 Q249.314 1513.66 255.124 1513.66 Z" fill="#000000" fill-rule="nonzero" fill-opacity="1" /><path clip-path="url(#clip480)" d="M285.286 1517.37 Q281.675 1517.37 279.846 1520.93 Q278.041 1524.47 278.041 1531.6 Q278.041 1538.71 279.846 1542.27 Q281.675 1545.82 285.286 1545.82 Q288.92 1545.82 290.726 1542.27 Q292.555 1538.71 292.555 1531.6 Q292.555 1524.47 290.726 1520.93 Q288.92 1517.37 285.286 1517.37 M285.286 1513.66 Q291.096 1513.66 294.152 1518.27 Q297.23 1522.85 297.23 1531.6 Q297.23 1540.33 294.152 1544.94 Q291.096 1549.52 285.286 1549.52 Q279.476 1549.52 276.397 1544.94 Q273.342 1540.33 273.342 1531.6 Q273.342 1522.85 276.397 1518.27 Q279.476 1513.66 285.286 1513.66 Z" fill="#000000" fill-rule="nonzero" fill-opacity="1" /><path clip-path="url(#clip480)" d="M721.353 1517.37 Q717.742 1517.37 715.914 1520.93 Q714.108 1524.47 714.108 1531.6 Q714.108 1538.71 715.914 1542.27 Q717.742 1545.82 721.353 1545.82 Q724.988 1545.82 726.793 1542.27 Q728.622 1538.71 728.622 1531.6 Q728.622 1524.47 726.793 1520.93 Q724.988 1517.37 721.353 1517.37 M721.353 1513.66 Q727.164 1513.66 730.219 1518.27 Q733.298 1522.85 733.298 1531.6 Q733.298 1540.33 730.219 1544.94 Q727.164 1549.52 721.353 1549.52 Q715.543 1549.52 712.465 1544.94 Q709.409 1540.33 709.409 1531.6 Q709.409 1522.85 712.465 1518.27 Q715.543 1513.66 721.353 1513.66 Z" fill="#000000" fill-rule="nonzero" fill-opacity="1" /><path clip-path="url(#clip480)" d="M741.515 1542.97 L746.4 1542.97 L746.4 1548.85 L741.515 1548.85 L741.515 1542.97 Z" fill="#000000" fill-rule="nonzero" fill-opacity="1" /><path clip-path="url(#clip480)" d="M760.612 1544.91 L776.932 1544.91 L776.932 1548.85 L754.987 1548.85 L754.987 1544.91 Q757.649 1542.16 762.233 1537.53 Q766.839 1532.88 768.02 1531.53 Q770.265 1529.01 771.145 1527.27 Q772.048 1525.51 772.048 1523.82 Q772.048 1521.07 770.103 1519.33 Q768.182 1517.6 765.08 1517.6 Q762.881 1517.6 760.427 1518.36 Q757.997 1519.13 755.219 1520.68 L755.219 1515.95 Q758.043 1514.82 760.497 1514.24 Q762.95 1513.66 764.987 1513.66 Q770.358 1513.66 773.552 1516.35 Q776.747 1519.03 776.747 1523.52 Q776.747 1525.65 775.936 1527.57 Q775.149 1529.47 773.043 1532.07 Q772.464 1532.74 769.362 1535.95 Q766.261 1539.15 760.612 1544.91 Z" fill="#000000" fill-rule="nonzero" fill-opacity="1" /><path clip-path="url(#clip480)" d="M786.793 1514.29 L805.149 1514.29 L805.149 1518.22 L791.075 1518.22 L791.075 1526.7 Q792.094 1526.35 793.112 1526.19 Q794.131 1526 795.149 1526 Q800.936 1526 804.316 1529.17 Q807.695 1532.34 807.695 1537.76 Q807.695 1543.34 804.223 1546.44 Q800.751 1549.52 794.432 1549.52 Q792.256 1549.52 789.987 1549.15 Q787.742 1548.78 785.335 1548.04 L785.335 1543.34 Q787.418 1544.47 789.64 1545.03 Q791.862 1545.58 794.339 1545.58 Q798.344 1545.58 800.682 1543.48 Q803.02 1541.37 803.02 1537.76 Q803.02 1534.15 800.682 1532.04 Q798.344 1529.94 794.339 1529.94 Q792.464 1529.94 790.589 1530.35 Q788.737 1530.77 786.793 1531.65 L786.793 1514.29 Z" fill="#000000" fill-rule="nonzero" fill-opacity="1" /><path clip-path="url(#clip480)" d="M1231.82 1517.37 Q1228.21 1517.37 1226.38 1520.93 Q1224.57 1524.47 1224.57 1531.6 Q1224.57 1538.71 1226.38 1542.27 Q1228.21 1545.82 1231.82 1545.82 Q1235.45 1545.82 1237.26 1542.27 Q1239.09 1538.71 1239.09 1531.6 Q1239.09 1524.47 1237.26 1520.93 Q1235.45 1517.37 1231.82 1517.37 M1231.82 1513.66 Q1237.63 1513.66 1240.68 1518.27 Q1243.76 1522.85 1243.76 1531.6 Q1243.76 1540.33 1240.68 1544.94 Q1237.63 1549.52 1231.82 1549.52 Q1226.01 1549.52 1222.93 1544.94 Q1219.87 1540.33 1219.87 1531.6 Q1219.87 1522.85 1222.93 1518.27 Q1226.01 1513.66 1231.82 1513.66 Z" fill="#000000" fill-rule="nonzero" fill-opacity="1" /><path clip-path="url(#clip480)" d="M1251.98 1542.97 L1256.86 1542.97 L1256.86 1548.85 L1251.98 1548.85 L1251.98 1542.97 Z" fill="#000000" fill-rule="nonzero" fill-opacity="1" /><path clip-path="url(#clip480)" d="M1267.1 1514.29 L1285.45 1514.29 L1285.45 1518.22 L1271.38 1518.22 L1271.38 1526.7 Q1272.4 1526.35 1273.42 1526.19 Q1274.43 1526 1275.45 1526 Q1281.24 1526 1284.62 1529.17 Q1288 1532.34 1288 1537.76 Q1288 1543.34 1284.53 1546.44 Q1281.05 1549.52 1274.73 1549.52 Q1272.56 1549.52 1270.29 1549.15 Q1268.05 1548.78 1265.64 1548.04 L1265.64 1543.34 Q1267.72 1544.47 1269.94 1545.03 Q1272.17 1545.58 1274.64 1545.58 Q1278.65 1545.58 1280.98 1543.48 Q1283.32 1541.37 1283.32 1537.76 Q1283.32 1534.15 1280.98 1532.04 Q1278.65 1529.94 1274.64 1529.94 Q1272.77 1529.94 1270.89 1530.35 Q1269.04 1530.77 1267.1 1531.65 L1267.1 1514.29 Z" fill="#000000" fill-rule="nonzero" fill-opacity="1" /><path clip-path="url(#clip480)" d="M1307.21 1517.37 Q1303.6 1517.37 1301.77 1520.93 Q1299.97 1524.47 1299.97 1531.6 Q1299.97 1538.71 1301.77 1542.27 Q1303.6 1545.82 1307.21 1545.82 Q1310.85 1545.82 1312.65 1542.27 Q1314.48 1538.71 1314.48 1531.6 Q1314.48 1524.47 1312.65 1520.93 Q1310.85 1517.37 1307.21 1517.37 M1307.21 1513.66 Q1313.02 1513.66 1316.08 1518.27 Q1319.16 1522.85 1319.16 1531.6 Q1319.16 1540.33 1316.08 1544.94 Q1313.02 1549.52 1307.21 1549.52 Q1301.4 1549.52 1298.32 1544.94 Q1295.27 1540.33 1295.27 1531.6 Q1295.27 1522.85 1298.32 1518.27 Q1301.4 1513.66 1307.21 1513.66 Z" fill="#000000" fill-rule="nonzero" fill-opacity="1" /><path clip-path="url(#clip480)" d="M1743.28 1517.37 Q1739.67 1517.37 1737.84 1520.93 Q1736.03 1524.47 1736.03 1531.6 Q1736.03 1538.71 1737.84 1542.27 Q1739.67 1545.82 1743.28 1545.82 Q1746.91 1545.82 1748.72 1542.27 Q1750.55 1538.71 1750.55 1531.6 Q1750.55 1524.47 1748.72 1520.93 Q1746.91 1517.37 1743.28 1517.37 M1743.28 1513.66 Q1749.09 1513.66 1752.14 1518.27 Q1755.22 1522.85 1755.22 1531.6 Q1755.22 1540.33 1752.14 1544.94 Q1749.09 1549.52 1743.28 1549.52 Q1737.47 1549.52 1734.39 1544.94 Q1731.33 1540.33 1731.33 1531.6 Q1731.33 1522.85 1734.39 1518.27 Q1737.47 1513.66 1743.28 1513.66 Z" fill="#000000" fill-rule="nonzero" fill-opacity="1" /><path clip-path="url(#clip480)" d="M1763.44 1542.97 L1768.32 1542.97 L1768.32 1548.85 L1763.44 1548.85 L1763.44 1542.97 Z" fill="#000000" fill-rule="nonzero" fill-opacity="1" /><path clip-path="url(#clip480)" d="M1777.33 1514.29 L1799.55 1514.29 L1799.55 1516.28 L1787.01 1548.85 L1782.12 1548.85 L1793.93 1518.22 L1777.33 1518.22 L1777.33 1514.29 Z" fill="#000000" fill-rule="nonzero" fill-opacity="1" /><path clip-path="url(#clip480)" d="M1808.72 1514.29 L1827.07 1514.29 L1827.07 1518.22 L1813 1518.22 L1813 1526.7 Q1814.02 1526.35 1815.04 1526.19 Q1816.06 1526 1817.07 1526 Q1822.86 1526 1826.24 1529.17 Q1829.62 1532.34 1829.62 1537.76 Q1829.62 1543.34 1826.15 1546.44 Q1822.68 1549.52 1816.36 1549.52 Q1814.18 1549.52 1811.91 1549.15 Q1809.67 1548.78 1807.26 1548.04 L1807.26 1543.34 Q1809.34 1544.47 1811.57 1545.03 Q1813.79 1545.58 1816.26 1545.58 Q1820.27 1545.58 1822.61 1543.48 Q1824.95 1541.37 1824.95 1537.76 Q1824.95 1534.15 1822.61 1532.04 Q1820.27 1529.94 1816.26 1529.94 Q1814.39 1529.94 1812.51 1530.35 Q1810.66 1530.77 1808.72 1531.65 L1808.72 1514.29 Z" fill="#000000" fill-rule="nonzero" fill-opacity="1" /><path clip-path="url(#clip480)" d="M2243.51 1544.91 L2251.15 1544.91 L2251.15 1518.55 L2242.84 1520.21 L2242.84 1515.95 L2251.1 1514.29 L2255.78 1514.29 L2255.78 1544.91 L2263.42 1544.91 L2263.42 1548.85 L2243.51 1548.85 L2243.51 1544.91 Z" fill="#000000" fill-rule="nonzero" fill-opacity="1" /><path clip-path="url(#clip480)" d="M2272.86 1542.97 L2277.75 1542.97 L2277.75 1548.85 L2272.86 1548.85 L2272.86 1542.97 Z" fill="#000000" fill-rule="nonzero" fill-opacity="1" /><path clip-path="url(#clip480)" d="M2297.93 1517.37 Q2294.32 1517.37 2292.49 1520.93 Q2290.69 1524.47 2290.69 1531.6 Q2290.69 1538.71 2292.49 1542.27 Q2294.32 1545.82 2297.93 1545.82 Q2301.57 1545.82 2303.37 1542.27 Q2305.2 1538.71 2305.2 1531.6 Q2305.2 1524.47 2303.37 1520.93 Q2301.57 1517.37 2297.93 1517.37 M2297.93 1513.66 Q2303.74 1513.66 2306.8 1518.27 Q2309.88 1522.85 2309.88 1531.6 Q2309.88 1540.33 2306.8 1544.94 Q2303.74 1549.52 2297.93 1549.52 Q2292.12 1549.52 2289.04 1544.94 Q2285.99 1540.33 2285.99 1531.6 Q2285.99 1522.85 2289.04 1518.27 Q2292.12 1513.66 2297.93 1513.66 Z" fill="#000000" fill-rule="nonzero" fill-opacity="1" /><path clip-path="url(#clip480)" d="M2328.1 1517.37 Q2324.48 1517.37 2322.66 1520.93 Q2320.85 1524.47 2320.85 1531.6 Q2320.85 1538.71 2322.66 1542.27 Q2324.48 1545.82 2328.1 1545.82 Q2331.73 1545.82 2333.54 1542.27 Q2335.36 1538.71 2335.36 1531.6 Q2335.36 1524.47 2333.54 1520.93 Q2331.73 1517.37 2328.1 1517.37 M2328.1 1513.66 Q2333.91 1513.66 2336.96 1518.27 Q2340.04 1522.85 2340.04 1531.6 Q2340.04 1540.33 2336.96 1544.94 Q2333.91 1549.52 2328.1 1549.52 Q2322.29 1549.52 2319.21 1544.94 Q2316.15 1540.33 2316.15 1531.6 Q2316.15 1522.85 2319.21 1518.27 Q2322.29 1513.66 2328.1 1513.66 Z" fill="#000000" fill-rule="nonzero" fill-opacity="1" /><polyline clip-path="url(#clip480)" style="stroke:#000000; stroke-linecap:round; stroke-linejoin:round; stroke-width:4; stroke-opacity:1; fill:none" points="186.274,1486.45 186.274,47.2441 "/>
<polyline clip-path="url(#clip480)" style="stroke:#000000; stroke-linecap:round; stroke-linejoin:round; stroke-width:4; stroke-opacity:1; fill:none" points="186.274,1445.67 205.172,1445.67 "/>
<polyline clip-path="url(#clip480)" style="stroke:#000000; stroke-linecap:round; stroke-linejoin:round; stroke-width:4; stroke-opacity:1; fill:none" points="186.274,1106.24 205.172,1106.24 "/>
<polyline clip-path="url(#clip480)" style="stroke:#000000; stroke-linecap:round; stroke-linejoin:round; stroke-width:4; stroke-opacity:1; fill:none" points="186.274,766.805 205.172,766.805 "/>
<polyline clip-path="url(#clip480)" style="stroke:#000000; stroke-linecap:round; stroke-linejoin:round; stroke-width:4; stroke-opacity:1; fill:none" points="186.274,427.37 205.172,427.37 "/>
<polyline clip-path="url(#clip480)" style="stroke:#000000; stroke-linecap:round; stroke-linejoin:round; stroke-width:4; stroke-opacity:1; fill:none" points="186.274,87.9355 205.172,87.9355 "/>
<path clip-path="url(#clip480)" d="M62.9365 1431.47 Q59.3254 1431.47 57.4967 1435.04 Q55.6912 1438.58 55.6912 1445.71 Q55.6912 1452.82 57.4967 1456.38 Q59.3254 1459.92 62.9365 1459.92 Q66.5707 1459.92 68.3763 1456.38 Q70.205 1452.82 70.205 1445.71 Q70.205 1438.58 68.3763 1435.04 Q66.5707 1431.47 62.9365 1431.47 M62.9365 1427.77 Q68.7467 1427.77 71.8022 1432.38 Q74.8809 1436.96 74.8809 1445.71 Q74.8809 1454.44 71.8022 1459.04 Q68.7467 1463.63 62.9365 1463.63 Q57.1264 1463.63 54.0477 1459.04 Q50.9921 1454.44 50.9921 1445.71 Q50.9921 1436.96 54.0477 1432.38 Q57.1264 1427.77 62.9365 1427.77 Z" fill="#000000" fill-rule="nonzero" fill-opacity="1" /><path clip-path="url(#clip480)" d="M83.0984 1457.08 L87.9827 1457.08 L87.9827 1462.95 L83.0984 1462.95 L83.0984 1457.08 Z" fill="#000000" fill-rule="nonzero" fill-opacity="1" /><path clip-path="url(#clip480)" d="M108.168 1431.47 Q104.557 1431.47 102.728 1435.04 Q100.922 1438.58 100.922 1445.71 Q100.922 1452.82 102.728 1456.38 Q104.557 1459.92 108.168 1459.92 Q111.802 1459.92 113.608 1456.38 Q115.436 1452.82 115.436 1445.71 Q115.436 1438.58 113.608 1435.04 Q111.802 1431.47 108.168 1431.47 M108.168 1427.77 Q113.978 1427.77 117.033 1432.38 Q120.112 1436.96 120.112 1445.71 Q120.112 1454.44 117.033 1459.04 Q113.978 1463.63 108.168 1463.63 Q102.358 1463.63 99.2789 1459.04 Q96.2234 1454.44 96.2234 1445.71 Q96.2234 1436.96 99.2789 1432.38 Q102.358 1427.77 108.168 1427.77 Z" fill="#000000" fill-rule="nonzero" fill-opacity="1" /><path clip-path="url(#clip480)" d="M138.33 1431.47 Q134.719 1431.47 132.89 1435.04 Q131.084 1438.58 131.084 1445.71 Q131.084 1452.82 132.89 1456.38 Q134.719 1459.92 138.33 1459.92 Q141.964 1459.92 143.769 1456.38 Q145.598 1452.82 145.598 1445.71 Q145.598 1438.58 143.769 1435.04 Q141.964 1431.47 138.33 1431.47 M138.33 1427.77 Q144.14 1427.77 147.195 1432.38 Q150.274 1436.96 150.274 1445.71 Q150.274 1454.44 147.195 1459.04 Q144.14 1463.63 138.33 1463.63 Q132.519 1463.63 129.441 1459.04 Q126.385 1454.44 126.385 1445.71 Q126.385 1436.96 129.441 1432.38 Q132.519 1427.77 138.33 1427.77 Z" fill="#000000" fill-rule="nonzero" fill-opacity="1" /><path clip-path="url(#clip480)" d="M63.9319 1092.04 Q60.3208 1092.04 58.4921 1095.6 Q56.6865 1099.15 56.6865 1106.27 Q56.6865 1113.38 58.4921 1116.95 Q60.3208 1120.49 63.9319 1120.49 Q67.5661 1120.49 69.3717 1116.95 Q71.2004 1113.38 71.2004 1106.27 Q71.2004 1099.15 69.3717 1095.6 Q67.5661 1092.04 63.9319 1092.04 M63.9319 1088.34 Q69.742 1088.34 72.7976 1092.94 Q75.8763 1097.52 75.8763 1106.27 Q75.8763 1115 72.7976 1119.61 Q69.742 1124.19 63.9319 1124.19 Q58.1217 1124.19 55.043 1119.61 Q51.9875 1115 51.9875 1106.27 Q51.9875 1097.52 55.043 1092.94 Q58.1217 1088.34 63.9319 1088.34 Z" fill="#000000" fill-rule="nonzero" fill-opacity="1" /><path clip-path="url(#clip480)" d="M84.0938 1117.64 L88.978 1117.64 L88.978 1123.52 L84.0938 1123.52 L84.0938 1117.64 Z" fill="#000000" fill-rule="nonzero" fill-opacity="1" /><path clip-path="url(#clip480)" d="M103.191 1119.58 L119.51 1119.58 L119.51 1123.52 L97.566 1123.52 L97.566 1119.58 Q100.228 1116.83 104.811 1112.2 Q109.418 1107.55 110.598 1106.21 Q112.844 1103.68 113.723 1101.95 Q114.626 1100.19 114.626 1098.5 Q114.626 1095.74 112.682 1094.01 Q110.76 1092.27 107.658 1092.27 Q105.459 1092.27 103.006 1093.03 Q100.575 1093.8 97.7974 1095.35 L97.7974 1090.63 Q100.621 1089.49 103.075 1088.91 Q105.529 1088.34 107.566 1088.34 Q112.936 1088.34 116.131 1091.02 Q119.325 1093.71 119.325 1098.2 Q119.325 1100.33 118.515 1102.25 Q117.728 1104.15 115.621 1106.74 Q115.043 1107.41 111.941 1110.63 Q108.839 1113.82 103.191 1119.58 Z" fill="#000000" fill-rule="nonzero" fill-opacity="1" /><path clip-path="url(#clip480)" d="M129.371 1088.96 L147.728 1088.96 L147.728 1092.9 L133.654 1092.9 L133.654 1101.37 Q134.672 1101.02 135.691 1100.86 Q136.709 1100.67 137.728 1100.67 Q143.515 1100.67 146.894 1103.84 Q150.274 1107.02 150.274 1112.43 Q150.274 1118.01 146.802 1121.11 Q143.33 1124.19 137.01 1124.19 Q134.834 1124.19 132.566 1123.82 Q130.32 1123.45 127.913 1122.71 L127.913 1118.01 Q129.996 1119.15 132.219 1119.7 Q134.441 1120.26 136.918 1120.26 Q140.922 1120.26 143.26 1118.15 Q145.598 1116.04 145.598 1112.43 Q145.598 1108.82 143.26 1106.71 Q140.922 1104.61 136.918 1104.61 Q135.043 1104.61 133.168 1105.02 Q131.316 1105.44 129.371 1106.32 L129.371 1088.96 Z" fill="#000000" fill-rule="nonzero" fill-opacity="1" /><path clip-path="url(#clip480)" d="M62.9365 752.604 Q59.3254 752.604 57.4967 756.169 Q55.6912 759.71 55.6912 766.84 Q55.6912 773.946 57.4967 777.511 Q59.3254 781.053 62.9365 781.053 Q66.5707 781.053 68.3763 777.511 Q70.205 773.946 70.205 766.84 Q70.205 759.71 68.3763 756.169 Q66.5707 752.604 62.9365 752.604 M62.9365 748.9 Q68.7467 748.9 71.8022 753.507 Q74.8809 758.09 74.8809 766.84 Q74.8809 775.567 71.8022 780.173 Q68.7467 784.757 62.9365 784.757 Q57.1264 784.757 54.0477 780.173 Q50.9921 775.567 50.9921 766.84 Q50.9921 758.09 54.0477 753.507 Q57.1264 748.9 62.9365 748.9 Z" fill="#000000" fill-rule="nonzero" fill-opacity="1" /><path clip-path="url(#clip480)" d="M83.0984 778.206 L87.9827 778.206 L87.9827 784.085 L83.0984 784.085 L83.0984 778.206 Z" fill="#000000" fill-rule="nonzero" fill-opacity="1" /><path clip-path="url(#clip480)" d="M98.2141 749.525 L116.57 749.525 L116.57 753.46 L102.496 753.46 L102.496 761.933 Q103.515 761.585 104.534 761.423 Q105.552 761.238 106.571 761.238 Q112.358 761.238 115.737 764.409 Q119.117 767.581 119.117 772.997 Q119.117 778.576 115.645 781.678 Q112.172 784.757 105.853 784.757 Q103.677 784.757 101.409 784.386 Q99.1632 784.016 96.7558 783.275 L96.7558 778.576 Q98.8391 779.71 101.061 780.266 Q103.284 780.821 105.76 780.821 Q109.765 780.821 112.103 778.715 Q114.441 776.608 114.441 772.997 Q114.441 769.386 112.103 767.28 Q109.765 765.173 105.76 765.173 Q103.885 765.173 102.01 765.59 Q100.159 766.007 98.2141 766.886 L98.2141 749.525 Z" fill="#000000" fill-rule="nonzero" fill-opacity="1" /><path clip-path="url(#clip480)" d="M138.33 752.604 Q134.719 752.604 132.89 756.169 Q131.084 759.71 131.084 766.84 Q131.084 773.946 132.89 777.511 Q134.719 781.053 138.33 781.053 Q141.964 781.053 143.769 777.511 Q145.598 773.946 145.598 766.84 Q145.598 759.71 143.769 756.169 Q141.964 752.604 138.33 752.604 M138.33 748.9 Q144.14 748.9 147.195 753.507 Q150.274 758.09 150.274 766.84 Q150.274 775.567 147.195 780.173 Q144.14 784.757 138.33 784.757 Q132.519 784.757 129.441 780.173 Q126.385 775.567 126.385 766.84 Q126.385 758.09 129.441 753.507 Q132.519 748.9 138.33 748.9 Z" fill="#000000" fill-rule="nonzero" fill-opacity="1" /><path clip-path="url(#clip480)" d="M63.9319 413.169 Q60.3208 413.169 58.4921 416.734 Q56.6865 420.276 56.6865 427.405 Q56.6865 434.512 58.4921 438.076 Q60.3208 441.618 63.9319 441.618 Q67.5661 441.618 69.3717 438.076 Q71.2004 434.512 71.2004 427.405 Q71.2004 420.276 69.3717 416.734 Q67.5661 413.169 63.9319 413.169 M63.9319 409.465 Q69.742 409.465 72.7976 414.072 Q75.8763 418.655 75.8763 427.405 Q75.8763 436.132 72.7976 440.738 Q69.742 445.322 63.9319 445.322 Q58.1217 445.322 55.043 440.738 Q51.9875 436.132 51.9875 427.405 Q51.9875 418.655 55.043 414.072 Q58.1217 409.465 63.9319 409.465 Z" fill="#000000" fill-rule="nonzero" fill-opacity="1" /><path clip-path="url(#clip480)" d="M84.0938 438.771 L88.978 438.771 L88.978 444.65 L84.0938 444.65 L84.0938 438.771 Z" fill="#000000" fill-rule="nonzero" fill-opacity="1" /><path clip-path="url(#clip480)" d="M97.9826 410.09 L120.205 410.09 L120.205 412.081 L107.658 444.65 L102.774 444.65 L114.58 414.026 L97.9826 414.026 L97.9826 410.09 Z" fill="#000000" fill-rule="nonzero" fill-opacity="1" /><path clip-path="url(#clip480)" d="M129.371 410.09 L147.728 410.09 L147.728 414.026 L133.654 414.026 L133.654 422.498 Q134.672 422.151 135.691 421.988 Q136.709 421.803 137.728 421.803 Q143.515 421.803 146.894 424.975 Q150.274 428.146 150.274 433.562 Q150.274 439.141 146.802 442.243 Q143.33 445.322 137.01 445.322 Q134.834 445.322 132.566 444.951 Q130.32 444.581 127.913 443.84 L127.913 439.141 Q129.996 440.275 132.219 440.831 Q134.441 441.387 136.918 441.387 Q140.922 441.387 143.26 439.28 Q145.598 437.174 145.598 433.562 Q145.598 429.951 143.26 427.845 Q140.922 425.738 136.918 425.738 Q135.043 425.738 133.168 426.155 Q131.316 426.572 129.371 427.451 L129.371 410.09 Z" fill="#000000" fill-rule="nonzero" fill-opacity="1" /><path clip-path="url(#clip480)" d="M53.7467 101.28 L61.3856 101.28 L61.3856 74.9148 L53.0754 76.5814 L53.0754 72.3222 L61.3393 70.6555 L66.0152 70.6555 L66.0152 101.28 L73.654 101.28 L73.654 105.216 L53.7467 105.216 L53.7467 101.28 Z" fill="#000000" fill-rule="nonzero" fill-opacity="1" /><path clip-path="url(#clip480)" d="M83.0984 99.3359 L87.9827 99.3359 L87.9827 105.216 L83.0984 105.216 L83.0984 99.3359 Z" fill="#000000" fill-rule="nonzero" fill-opacity="1" /><path clip-path="url(#clip480)" d="M108.168 73.7342 Q104.557 73.7342 102.728 77.299 Q100.922 80.8407 100.922 87.9703 Q100.922 95.0767 102.728 98.6415 Q104.557 102.183 108.168 102.183 Q111.802 102.183 113.608 98.6415 Q115.436 95.0767 115.436 87.9703 Q115.436 80.8407 113.608 77.299 Q111.802 73.7342 108.168 73.7342 M108.168 70.0305 Q113.978 70.0305 117.033 74.637 Q120.112 79.2203 120.112 87.9703 Q120.112 96.6971 117.033 101.304 Q113.978 105.887 108.168 105.887 Q102.358 105.887 99.2789 101.304 Q96.2234 96.6971 96.2234 87.9703 Q96.2234 79.2203 99.2789 74.637 Q102.358 70.0305 108.168 70.0305 Z" fill="#000000" fill-rule="nonzero" fill-opacity="1" /><path clip-path="url(#clip480)" d="M138.33 73.7342 Q134.719 73.7342 132.89 77.299 Q131.084 80.8407 131.084 87.9703 Q131.084 95.0767 132.89 98.6415 Q134.719 102.183 138.33 102.183 Q141.964 102.183 143.769 98.6415 Q145.598 95.0767 145.598 87.9703 Q145.598 80.8407 143.769 77.299 Q141.964 73.7342 138.33 73.7342 M138.33 70.0305 Q144.14 70.0305 147.195 74.637 Q150.274 79.2203 150.274 87.9703 Q150.274 96.6971 147.195 101.304 Q144.14 105.887 138.33 105.887 Q132.519 105.887 129.441 101.304 Q126.385 96.6971 126.385 87.9703 Q126.385 79.2203 129.441 74.637 Q132.519 70.0305 138.33 70.0305 Z" fill="#000000" fill-rule="nonzero" fill-opacity="1" /><polyline clip-path="url(#clip482)" style="stroke:#009af9; stroke-linecap:round; stroke-linejoin:round; stroke-width:4; stroke-opacity:1; fill:none" points="247.59,1445.72 268.028,1445.71 288.467,1445.71 308.905,1445.71 329.344,1445.71 349.782,1445.71 370.221,1445.71 390.659,1445.71 411.098,1445.7 431.536,1445.7 451.975,1445.7 472.413,1445.7 492.852,1445.7 513.29,1445.7 533.729,1445.69 554.167,1445.69 574.606,1423.01 595.044,1361.24 615.483,1326.59 635.921,1296.46 656.36,1275.95 676.798,1251.69 697.237,1225.5 717.675,1208.07 738.114,1184.58 758.552,1174.12 778.991,1149.17 799.429,1128.65 819.868,1106.24 840.306,1106.24 860.745,1080.82 881.183,1057.76 901.622,1041.6 922.06,1021.25 942.499,993.108 962.937,993.104 983.376,993.1 1003.81,976.94 1024.25,951.967 1044.69,936.518 1065.13,912.477 1085.57,902.579 1106.01,879.978 1126.45,863.817 1146.88,842.265 1167.32,819.323 1187.76,790.503 1208.2,766.86 1228.64,766.855 1249.08,766.85 1269.51,766.846 1289.95,766.777 1310.39,766.775 1330.83,766.773 1351.27,743.14 1371.71,714.328 1392.15,691.389 1412.58,669.826 1433.02,653.668 1453.46,631.036 1473.9,621.143 1494.34,597.1 1514.78,581.681 1535.22,556.704 1555.65,540.518 1576.09,540.509 1596.53,540.5 1616.97,512.35 1637.41,492.027 1657.85,475.849 1678.29,452.84 1698.72,427.363 1719.16,427.356 1739.6,404.94 1760.04,384.426 1780.48,359.479 1800.92,349.051 1821.35,325.542 1841.79,308.113 1862.23,281.905 1882.67,257.656 1903.11,237.129 1923.55,207.075 1943.99,172.33 1964.42,110.547 1984.86,88.0029 2005.3,87.9995 2025.74,87.9969 2046.18,87.9947 2066.62,87.9928 2087.06,87.991 2107.49,87.9893 2127.93,87.9877 2148.37,87.9861 2168.81,87.9846 2189.25,87.9832 2209.69,87.9818 2230.12,87.9804 2250.56,87.979 2271,87.9776 2291.44,87.9763 "/>
<path clip-path="url(#clip480)" d="M258.49 198.898 L527.569 198.898 L527.569 95.2176 L258.49 95.2176  Z" fill="#ffffff" fill-rule="evenodd" fill-opacity="1"/>
<polyline clip-path="url(#clip480)" style="stroke:#000000; stroke-linecap:round; stroke-linejoin:round; stroke-width:4; stroke-opacity:1; fill:none" points="258.49,198.898 527.569,198.898 527.569,95.2176 258.49,95.2176 258.49,198.898 "/>
<polyline clip-path="url(#clip480)" style="stroke:#009af9; stroke-linecap:round; stroke-linejoin:round; stroke-width:4; stroke-opacity:1; fill:none" points="282.562,147.058 426.994,147.058 "/>
<path clip-path="url(#clip480)" d="M464.909 166.745 Q463.103 171.375 461.39 172.787 Q459.677 174.199 456.807 174.199 L453.404 174.199 L453.404 170.634 L455.904 170.634 Q457.663 170.634 458.636 169.8 Q459.608 168.967 460.788 165.865 L461.552 163.921 L451.066 138.412 L455.58 138.412 L463.682 158.689 L471.784 138.412 L476.298 138.412 L464.909 166.745 Z" fill="#000000" fill-rule="nonzero" fill-opacity="1" /><path clip-path="url(#clip480)" d="M483.589 160.402 L491.228 160.402 L491.228 134.037 L482.918 135.703 L482.918 131.444 L491.182 129.778 L495.858 129.778 L495.858 160.402 L503.497 160.402 L503.497 164.338 L483.589 164.338 L483.589 160.402 Z" fill="#000000" fill-rule="nonzero" fill-opacity="1" /></svg>
