<?xml version="1.0" encoding="utf-8"?>
<svg xmlns="http://www.w3.org/2000/svg" xmlns:xlink="http://www.w3.org/1999/xlink" width="600" height="400" viewBox="0 0 2400 1600">
<defs>
  <clipPath id="clip800">
    <rect x="0" y="0" width="2400" height="1600"/>
  </clipPath>
</defs>
<path clip-path="url(#clip800)" d="M0 1600 L2400 1600 L2400 0 L0 0  Z" fill="#ffffff" fill-rule="evenodd" fill-opacity="1"/>
<defs>
  <clipPath id="clip801">
    <rect x="480" y="0" width="1681" height="1600"/>
  </clipPath>
</defs>
<path clip-path="url(#clip800)" d="M186.274 1486.45 L2352.76 1486.45 L2352.76 123.472 L186.274 123.472  Z" fill="#ffffff" fill-rule="evenodd" fill-opacity="1"/>
<defs>
  <clipPath id="clip802">
    <rect x="186" y="123" width="2167" height="1364"/>
  </clipPath>
</defs>
<polyline clip-path="url(#clip802)" style="stroke:#000000; stroke-linecap:round; stroke-linejoin:round; stroke-width:2; stroke-opacity:0.1; fill:none" points="247.59,1486.45 247.59,123.472 "/>
<polyline clip-path="url(#clip802)" style="stroke:#000000; stroke-linecap:round; stroke-linejoin:round; stroke-width:2; stroke-opacity:0.1; fill:none" points="758.552,1486.45 758.552,123.472 "/>
<polyline clip-path="url(#clip802)" style="stroke:#000000; stroke-linecap:round; stroke-linejoin:round; stroke-width:2; stroke-opacity:0.1; fill:none" points="1269.51,1486.45 1269.51,123.472 "/>
<polyline clip-path="url(#clip802)" style="stroke:#000000; stroke-linecap:round; stroke-linejoin:round; stroke-width:2; stroke-opacity:0.1; fill:none" points="1780.48,1486.45 1780.48,123.472 "/>
<polyline clip-path="url(#clip802)" style="stroke:#000000; stroke-linecap:round; stroke-linejoin:round; stroke-width:2; stroke-opacity:0.1; fill:none" points="2291.44,1486.45 2291.44,123.472 "/>
<polyline clip-path="url(#clip802)" style="stroke:#000000; stroke-linecap:round; stroke-linejoin:round; stroke-width:2; stroke-opacity:0.1; fill:none" points="186.274,1447.87 2352.76,1447.87 "/>
<polyline clip-path="url(#clip802)" style="stroke:#000000; stroke-linecap:round; stroke-linejoin:round; stroke-width:2; stroke-opacity:0.1; fill:none" points="186.274,1126.42 2352.76,1126.42 "/>
<polyline clip-path="url(#clip802)" style="stroke:#000000; stroke-linecap:round; stroke-linejoin:round; stroke-width:2; stroke-opacity:0.1; fill:none" points="186.274,804.96 2352.76,804.96 "/>
<polyline clip-path="url(#clip802)" style="stroke:#000000; stroke-linecap:round; stroke-linejoin:round; stroke-width:2; stroke-opacity:0.1; fill:none" points="186.274,483.503 2352.76,483.503 "/>
<polyline clip-path="url(#clip802)" style="stroke:#000000; stroke-linecap:round; stroke-linejoin:round; stroke-width:2; stroke-opacity:0.1; fill:none" points="186.274,162.047 2352.76,162.047 "/>
<polyline clip-path="url(#clip800)" style="stroke:#000000; stroke-linecap:round; stroke-linejoin:round; stroke-width:4; stroke-opacity:1; fill:none" points="186.274,1486.45 2352.76,1486.45 "/>
<polyline clip-path="url(#clip800)" style="stroke:#000000; stroke-linecap:round; stroke-linejoin:round; stroke-width:4; stroke-opacity:1; fill:none" points="247.59,1486.45 247.59,1467.55 "/>
<polyline clip-path="url(#clip800)" style="stroke:#000000; stroke-linecap:round; stroke-linejoin:round; stroke-width:4; stroke-opacity:1; fill:none" points="758.552,1486.45 758.552,1467.55 "/>
<polyline clip-path="url(#clip800)" style="stroke:#000000; stroke-linecap:round; stroke-linejoin:round; stroke-width:4; stroke-opacity:1; fill:none" points="1269.51,1486.45 1269.51,1467.55 "/>
<polyline clip-path="url(#clip800)" style="stroke:#000000; stroke-linecap:round; stroke-linejoin:round; stroke-width:4; stroke-opacity:1; fill:none" points="1780.48,1486.45 1780.48,1467.55 "/>
<polyline clip-path="url(#clip800)" style="stroke:#000000; stroke-linecap:round; stroke-linejoin:round; stroke-width:4; stroke-opacity:1; fill:none" points="2291.44,1486.45 2291.44,1467.55 "/>
<path clip-path="url(#clip800)" d="M209.893 1517.37 Q206.282 1517.37 204.453 1520.93 Q202.648 1524.47 202.648 1531.6 Q202.648 1538.71 204.453 1542.27 Q206.282 1545.82 209.893 1545.82 Q213.527 1545.82 215.333 1542.27 Q217.161 1538.71 217.161 1531.6 Q217.161 1524.47 215.333 1520.93 Q213.527 1517.37 209.893 1517.37 M209.893 1513.66 Q215.703 1513.66 218.759 1518.27 Q221.837 1522.85 221.837 1531.6 Q221.837 1540.33 218.759 1544.94 Q215.703 1549.52 209.893 1549.52 Q204.083 1549.52 201.004 1544.94 Q197.949 1540.33 197.949 1531.6 Q197.949 1522.85 201.004 1518.27 Q204.083 1513.66 209.893 1513.66 Z" fill="#000000" fill-rule="nonzero" fill-opacity="1" /><path clip-path="url(#clip800)" d="M230.055 1542.97 L234.939 1542.97 L234.939 1548.85 L230.055 1548.85 L230.055 1542.97 Z" fill="#000000" fill-rule="nonzero" fill-opacity="1" /><path clip-path="url(#clip800)" d="M255.124 1517.37 Q251.513 1517.37 249.684 1520.93 Q247.879 1524.47 247.879 1531.6 Q247.879 1538.71 249.684 1542.27 Q251.513 1545.82 255.124 1545.82 Q258.758 1545.82 260.564 1542.27 Q262.393 1538.71 262.393 1531.6 Q262.393 1524.47 260.564 1520.93 Q258.758 1517.37 255.124 1517.37 M255.124 1513.66 Q260.934 1513.66 263.99 1518.27 Q267.069 1522.85 267.069 1531.6 Q267.069 1540.33 263.99 1544.94 Q260.934 1549.52 255.124 1549.52 Q249.314 1549.52 246.235 1544.94 Q243.18 1540.33 243.18 1531.6 Q243.18 1522.85 246.235 1518.27 Q249.314 1513.66 255.124 1513.66 Z" fill="#000000" fill-rule="nonzero" fill-opacity="1" /><path clip-path="url(#clip800)" d="M285.286 1517.37 Q281.675 1517.37 279.846 1520.93 Q278.041 1524.47 278.041 1531.6 Q278.041 1538.71 279.846 1542.27 Q281.675 1545.82 285.286 1545.82 Q288.92 1545.82 290.726 1542.27 Q292.555 1538.71 292.555 1531.6 Q292.555 1524.47 290.726 1520.93 Q288.92 1517.37 285.286 1517.37 M285.286 1513.66 Q291.096 1513.66 294.152 1518.27 Q297.23 1522.85 297.23 1531.6 Q297.23 1540.33 294.152 1544.94 Q291.096 1549.52 285.286 1549.52 Q279.476 1549.52 276.397 1544.94 Q273.342 1540.33 273.342 1531.6 Q273.342 1522.85 276.397 1518.27 Q279.476 1513.66 285.286 1513.66 Z" fill="#000000" fill-rule="nonzero" fill-opacity="1" /><path clip-path="url(#clip800)" d="M721.353 1517.37 Q717.742 1517.37 715.914 1520.93 Q714.108 1524.47 714.108 1531.6 Q714.108 1538.71 715.914 1542.27 Q717.742 1545.82 721.353 1545.82 Q724.988 1545.82 726.793 1542.27 Q728.622 1538.71 728.622 1531.6 Q728.622 1524.47 726.793 1520.93 Q724.988 1517.37 721.353 1517.37 M721.353 1513.66 Q727.164 1513.66 730.219 1518.27 Q733.298 1522.85 733.298 1531.6 Q733.298 1540.33 730.219 1544.94 Q727.164 1549.52 721.353 1549.52 Q715.543 1549.52 712.465 1544.94 Q709.409 1540.33 709.409 1531.6 Q709.409 1522.85 712.465 1518.27 Q715.543 1513.66 721.353 1513.66 Z" fill="#000000" fill-rule="nonzero" fill-opacity="1" /><path clip-path="url(#clip800)" d="M741.515 1542.97 L746.4 1542.97 L746.4 1548.85 L741.515 1548.85 L741.515 1542.97 Z" fill="#000000" fill-rule="nonzero" fill-opacity="1" /><path clip-path="url(#clip800)" d="M760.612 1544.91 L776.932 1544.91 L776.932 1548.85 L754.987 1548.85 L754.987 1544.91 Q757.649 1542.16 762.233 1537.53 Q766.839 1532.88 768.02 1531.53 Q770.265 1529.01 771.145 1527.27 Q772.048 1525.51 772.048 1523.82 Q772.048 1521.07 770.103 1519.33 Q768.182 1517.6 765.08 1517.6 Q762.881 1517.6 760.427 1518.36 Q757.997 1519.13 755.219 1520.68 L755.219 1515.95 Q758.043 1514.82 760.497 1514.24 Q762.95 1513.66 764.987 1513.66 Q770.358 1513.66 773.552 1516.35 Q776.747 1519.03 776.747 1523.52 Q776.747 1525.65 775.936 1527.57 Q775.149 1529.47 773.043 1532.07 Q772.464 1532.74 769.362 1535.95 Q766.261 1539.15 760.612 1544.91 Z" fill="#000000" fill-rule="nonzero" fill-opacity="1" /><path clip-path="url(#clip800)" d="M786.793 1514.29 L805.149 1514.29 L805.149 1518.22 L791.075 1518.22 L791.075 1526.7 Q792.094 1526.35 793.112 1526.19 Q794.131 1526 795.149 1526 Q800.936 1526 804.316 1529.17 Q807.695 1532.34 807.695 1537.76 Q807.695 1543.34 804.223 1546.44 Q800.751 1549.52 794.432 1549.52 Q792.256 1549.52 789.987 1549.15 Q787.742 1548.78 785.335 1548.04 L785.335 1543.34 Q787.418 1544.47 789.64 1545.03 Q791.862 1545.58 794.339 1545.58 Q798.344 1545.58 800.682 1543.48 Q803.02 1541.37 803.02 1537.76 Q803.02 1534.15 800.682 1532.04 Q798.344 1529.94 794.339 1529.94 Q792.464 1529.94 790.589 1530.35 Q788.737 1530.77 786.793 1531.65 L786.793 1514.29 Z" fill="#000000" fill-rule="nonzero" fill-opacity="1" /><path clip-path="url(#clip800)" d="M1231.82 1517.37 Q1228.21 1517.37 1226.38 1520.93 Q1224.57 1524.47 1224.57 1531.6 Q1224.57 1538.71 1226.38 1542.27 Q1228.21 1545.82 1231.82 1545.82 Q1235.45 1545.82 1237.26 1542.27 Q1239.09 1538.71 1239.09 1531.6 Q1239.09 1524.47 1237.26 1520.93 Q1235.45 1517.37 1231.82 1517.37 M1231.82 1513.66 Q1237.63 1513.66 1240.68 1518.27 Q1243.76 1522.85 1243.76 1531.6 Q1243.76 1540.33 1240.68 1544.94 Q1237.63 1549.52 1231.82 1549.52 Q1226.01 1549.52 1222.93 1544.94 Q1219.87 1540.33 1219.87 1531.6 Q1219.87 1522.85 1222.93 1518.27 Q1226.01 1513.66 1231.82 1513.66 Z" fill="#000000" fill-rule="nonzero" fill-opacity="1" /><path clip-path="url(#clip800)" d="M1251.98 1542.97 L1256.86 1542.97 L1256.86 1548.85 L1251.98 1548.85 L1251.98 1542.97 Z" fill="#000000" fill-rule="nonzero" fill-opacity="1" /><path clip-path="url(#clip800)" d="M1267.1 1514.29 L1285.45 1514.29 L1285.45 1518.22 L1271.38 1518.22 L1271.38 1526.7 Q1272.4 1526.35 1273.42 1526.19 Q1274.43 1526 1275.45 1526 Q1281.24 1526 1284.62 1529.17 Q1288 1532.34 1288 1537.76 Q1288 1543.34 1284.53 1546.44 Q1281.05 1549.52 1274.73 1549.52 Q1272.56 1549.52 1270.29 1549.15 Q1268.05 1548.78 1265.64 1548.04 L1265.64 1543.34 Q1267.72 1544.47 1269.94 1545.03 Q1272.17 1545.58 1274.64 1545.58 Q1278.65 1545.58 1280.98 1543.48 Q1283.32 1541.37 1283.32 1537.76 Q1283.32 1534.15 1280.98 1532.04 Q1278.65 1529.94 1274.64 1529.94 Q1272.77 1529.94 1270.89 1530.35 Q1269.04 1530.77 1267.1 1531.65 L1267.1 1514.29 Z" fill="#000000" fill-rule="nonzero" fill-opacity="1" /><path clip-path="url(#clip800)" d="M1307.21 1517.37 Q1303.6 1517.37 1301.77 1520.93 Q1299.97 1524.47 1299.97 1531.6 Q1299.97 1538.71 1301.77 1542.27 Q1303.6 1545.82 1307.21 1545.82 Q1310.85 1545.82 1312.65 1542.27 Q1314.48 1538.71 1314.48 1531.6 Q1314.48 1524.47 1312.65 1520.93 Q1310.85 1517.37 1307.21 1517.37 M1307.21 1513.66 Q1313.02 1513.66 1316.08 1518.27 Q1319.16 1522.85 1319.16 1531.6 Q1319.16 1540.33 1316.08 1544.94 Q1313.02 1549.52 1307.21 1549.52 Q1301.4 1549.52 1298.32 1544.94 Q1295.27 1540.33 1295.27 1531.6 Q1295.27 1522.85 1298.32 1518.27 Q1301.4 1513.66 1307.21 1513.66 Z" fill="#000000" fill-rule="nonzero" fill-opacity="1" /><path clip-path="url(#clip800)" d="M1743.28 1517.37 Q1739.67 1517.37 1737.84 1520.93 Q1736.03 1524.47 1736.03 1531.6 Q1736.03 1538.71 1737.84 1542.27 Q1739.67 1545.82 1743.28 1545.82 Q1746.91 1545.82 1748.72 1542.27 Q1750.55 1538.71 1750.55 1531.6 Q1750.55 1524.47 1748.72 1520.93 Q1746.91 1517.37 1743.28 1517.37 M1743.28 1513.66 Q1749.09 1513.66 1752.14 1518.27 Q1755.22 1522.85 1755.22 1531.6 Q1755.22 1540.33 1752.14 1544.94 Q1749.09 1549.52 1743.28 1549.52 Q1737.47 1549.52 1734.39 1544.94 Q1731.33 1540.33 1731.33 1531.6 Q1731.33 1522.85 1734.39 1518.27 Q1737.47 1513.66 1743.28 1513.66 Z" fill="#000000" fill-rule="nonzero" fill-opacity="1" /><path clip-path="url(#clip800)" d="M1763.44 1542.97 L1768.32 1542.97 L1768.32 1548.85 L1763.44 1548.85 L1763.44 1542.97 Z" fill="#000000" fill-rule="nonzero" fill-opacity="1" /><path clip-path="url(#clip800)" d="M1777.33 1514.29 L1799.55 1514.29 L1799.55 1516.28 L1787.01 1548.85 L1782.12 1548.85 L1793.93 1518.22 L1777.33 1518.22 L1777.33 1514.29 Z" fill="#000000" fill-rule="nonzero" fill-opacity="1" /><path clip-path="url(#clip800)" d="M1808.72 1514.29 L1827.07 1514.29 L1827.07 1518.22 L1813 1518.22 L1813 1526.7 Q1814.02 1526.35 1815.04 1526.19 Q1816.06 1526 1817.07 1526 Q1822.86 1526 1826.24 1529.17 Q1829.62 1532.34 1829.62 1537.76 Q1829.62 1543.34 1826.15 1546.44 Q1822.68 1549.52 1816.36 1549.52 Q1814.18 1549.52 1811.91 1549.15 Q1809.67 1548.78 1807.26 1548.04 L1807.26 1543.34 Q1809.34 1544.47 1811.57 1545.03 Q1813.79 1545.58 1816.26 1545.58 Q1820.27 1545.58 1822.61 1543.48 Q1824.95 1541.37 1824.95 1537.76 Q1824.95 1534.15 1822.61 1532.04 Q1820.27 1529.94 1816.26 1529.94 Q1814.39 1529.94 1812.51 1530.35 Q1810.66 1530.77 1808.72 1531.65 L1808.72 1514.29 Z" fill="#000000" fill-rule="nonzero" fill-opacity="1" /><path clip-path="url(#clip800)" d="M2243.51 1544.91 L2251.15 1544.91 L2251.15 1518.55 L2242.84 1520.21 L2242.84 1515.95 L2251.1 1514.29 L2255.78 1514.29 L2255.78 1544.91 L2263.42 1544.91 L2263.42 1548.85 L2243.51 1548.85 L2243.51 1544.91 Z" fill="#000000" fill-rule="nonzero" fill-opacity="1" /><path clip-path="url(#clip800)" d="M2272.86 1542.97 L2277.75 1542.97 L2277.75 1548.85 L2272.86 1548.85 L2272.86 1542.97 Z" fill="#000000" fill-rule="nonzero" fill-opacity="1" /><path clip-path="url(#clip800)" d="M2297.93 1517.37 Q2294.32 1517.37 2292.49 1520.93 Q2290.69 1524.47 2290.69 1531.6 Q2290.69 1538.71 2292.49 1542.27 Q2294.32 1545.82 2297.93 1545.82 Q2301.57 1545.82 2303.37 1542.27 Q2305.2 1538.71 2305.2 1531.6 Q2305.2 1524.47 2303.37 1520.93 Q2301.57 1517.37 2297.93 1517.37 M2297.93 1513.66 Q2303.74 1513.66 2306.8 1518.27 Q2309.88 1522.85 2309.88 1531.6 Q2309.88 1540.33 2306.8 1544.94 Q2303.74 1549.52 2297.93 1549.52 Q2292.12 1549.52 2289.04 1544.94 Q2285.99 1540.33 2285.99 1531.6 Q2285.99 1522.85 2289.04 1518.27 Q2292.12 1513.66 2297.93 1513.66 Z" fill="#000000" fill-rule="nonzero" fill-opacity="1" /><path clip-path="url(#clip800)" d="M2328.1 1517.37 Q2324.48 1517.37 2322.66 1520.93 Q2320.85 1524.47 2320.85 1531.6 Q2320.85 1538.71 2322.66 1542.27 Q2324.48 1545.82 2328.1 1545.82 Q2331.73 1545.82 2333.54 1542.27 Q2335.36 1538.71 2335.36 1531.6 Q2335.36 1524.47 2333.54 1520.93 Q2331.73 1517.37 2328.1 1517.37 M2328.1 1513.66 Q2333.91 1513.66 2336.96 1518.27 Q2340.04 1522.85 2340.04 1531.6 Q2340.04 1540.33 2336.96 1544.94 Q2333.91 1549.52 2328.1 1549.52 Q2322.29 1549.52 2319.21 1544.94 Q2316.15 1540.33 2316.15 1531.6 Q2316.15 1522.85 2319.21 1518.27 Q2322.29 1513.66 2328.1 1513.66 Z" fill="#000000" fill-rule="nonzero" fill-opacity="1" /><polyline clip-path="url(#clip800)" style="stroke:#000000; stroke-linecap:round; stroke-linejoin:round; stroke-width:4; stroke-opacity:1; fill:none" points="186.274,1486.45 186.274,123.472 "/>
<polyline clip-path="url(#clip800)" style="stroke:#000000; stroke-linecap:round; stroke-linejoin:round; stroke-width:4; stroke-opacity:1; fill:none" points="186.274,1447.87 205.172,1447.87 "/>
<polyline clip-path="url(#clip800)" style="stroke:#000000; stroke-linecap:round; stroke-linejoin:round; stroke-width:4; stroke-opacity:1; fill:none" points="186.274,1126.42 205.172,1126.42 "/>
<polyline clip-path="url(#clip800)" style="stroke:#000000; stroke-linecap:round; stroke-linejoin:round; stroke-width:4; stroke-opacity:1; fill:none" points="186.274,804.96 205.172,804.96 "/>
<polyline clip-path="url(#clip800)" style="stroke:#000000; stroke-linecap:round; stroke-linejoin:round; stroke-width:4; stroke-opacity:1; fill:none" points="186.274,483.503 205.172,483.503 "/>
<polyline clip-path="url(#clip800)" style="stroke:#000000; stroke-linecap:round; stroke-linejoin:round; stroke-width:4; stroke-opacity:1; fill:none" points="186.274,162.047 205.172,162.047 "/>
<path clip-path="url(#clip800)" d="M62.9365 1433.67 Q59.3254 1433.67 57.4967 1437.24 Q55.6912 1440.78 55.6912 1447.91 Q55.6912 1455.01 57.4967 1458.58 Q59.3254 1462.12 62.9365 1462.12 Q66.5707 1462.12 68.3763 1458.58 Q70.205 1455.01 70.205 1447.91 Q70.205 1440.78 68.3763 1437.24 Q66.5707 1433.67 62.9365 1433.67 M62.9365 1429.97 Q68.7467 1429.97 71.8022 1434.57 Q74.8809 1439.16 74.8809 1447.91 Q74.8809 1456.63 71.8022 1461.24 Q68.7467 1465.82 62.9365 1465.82 Q57.1264 1465.82 54.0477 1461.24 Q50.9921 1456.63 50.9921 1447.91 Q50.9921 1439.16 54.0477 1434.57 Q57.1264 1429.97 62.9365 1429.97 Z" fill="#000000" fill-rule="nonzero" fill-opacity="1" /><path clip-path="url(#clip800)" d="M83.0984 1459.27 L87.9827 1459.27 L87.9827 1465.15 L83.0984 1465.15 L83.0984 1459.27 Z" fill="#000000" fill-rule="nonzero" fill-opacity="1" /><path clip-path="url(#clip800)" d="M108.168 1433.67 Q104.557 1433.67 102.728 1437.24 Q100.922 1440.78 100.922 1447.91 Q100.922 1455.01 102.728 1458.58 Q104.557 1462.12 108.168 1462.12 Q111.802 1462.12 113.608 1458.58 Q115.436 1455.01 115.436 1447.91 Q115.436 1440.78 113.608 1437.24 Q111.802 1433.67 108.168 1433.67 M108.168 1429.97 Q113.978 1429.97 117.033 1434.57 Q120.112 1439.16 120.112 1447.91 Q120.112 1456.63 117.033 1461.24 Q113.978 1465.82 108.168 1465.82 Q102.358 1465.82 99.2789 1461.24 Q96.2234 1456.63 96.2234 1447.91 Q96.2234 1439.16 99.2789 1434.57 Q102.358 1429.97 108.168 1429.97 Z" fill="#000000" fill-rule="nonzero" fill-opacity="1" /><path clip-path="url(#clip800)" d="M138.33 1433.67 Q134.719 1433.67 132.89 1437.24 Q131.084 1440.78 131.084 1447.91 Q131.084 1455.01 132.89 1458.58 Q134.719 1462.12 138.33 1462.12 Q141.964 1462.12 143.769 1458.58 Q145.598 1455.01 145.598 1447.91 Q145.598 1440.78 143.769 1437.24 Q141.964 1433.67 138.33 1433.67 M138.33 1429.97 Q144.14 1429.97 147.195 1434.57 Q150.274 1439.16 150.274 1447.91 Q150.274 1456.63 147.195 1461.24 Q144.14 1465.82 138.33 1465.82 Q132.519 1465.82 129.441 1461.24 Q126.385 1456.63 126.385 1447.91 Q126.385 1439.16 129.441 1434.57 Q132.519 1429.97 138.33 1429.97 Z" fill="#000000" fill-rule="nonzero" fill-opacity="1" /><path clip-path="url(#clip800)" d="M63.9319 1112.22 Q60.3208 1112.22 58.4921 1115.78 Q56.6865 1119.32 56.6865 1126.45 Q56.6865 1133.56 58.4921 1137.12 Q60.3208 1140.66 63.9319 1140.66 Q67.5661 1140.66 69.3717 1137.12 Q71.2004 1133.56 71.2004 1126.45 Q71.2004 1119.32 69.3717 1115.78 Q67.5661 1112.22 63.9319 1112.22 M63.9319 1108.51 Q69.742 1108.51 72.7976 1113.12 Q75.8763 1117.7 75.8763 1126.45 Q75.8763 1135.18 72.7976 1139.78 Q69.742 1144.37 63.9319 1144.37 Q58.1217 1144.37 55.043 1139.78 Q51.9875 1135.18 51.9875 1126.45 Q51.9875 1117.7 55.043 1113.12 Q58.1217 1108.51 63.9319 1108.51 Z" fill="#000000" fill-rule="nonzero" fill-opacity="1" /><path clip-path="url(#clip800)" d="M84.0938 1137.82 L88.978 1137.82 L88.978 1143.7 L84.0938 1143.7 L84.0938 1137.82 Z" fill="#000000" fill-rule="nonzero" fill-opacity="1" /><path clip-path="url(#clip800)" d="M103.191 1139.76 L119.51 1139.76 L119.51 1143.7 L97.566 1143.7 L97.566 1139.76 Q100.228 1137.01 104.811 1132.38 Q109.418 1127.72 110.598 1126.38 Q112.844 1123.86 113.723 1122.12 Q114.626 1120.36 114.626 1118.67 Q114.626 1115.92 112.682 1114.18 Q110.76 1112.45 107.658 1112.45 Q105.459 1112.45 103.006 1113.21 Q100.575 1113.97 97.7974 1115.53 L97.7974 1110.8 Q100.621 1109.67 103.075 1109.09 Q105.529 1108.51 107.566 1108.51 Q112.936 1108.51 116.131 1111.2 Q119.325 1113.88 119.325 1118.37 Q119.325 1120.5 118.515 1122.42 Q117.728 1124.32 115.621 1126.91 Q115.043 1127.59 111.941 1130.8 Q108.839 1134 103.191 1139.76 Z" fill="#000000" fill-rule="nonzero" fill-opacity="1" /><path clip-path="url(#clip800)" d="M129.371 1109.14 L147.728 1109.14 L147.728 1113.07 L133.654 1113.07 L133.654 1121.54 Q134.672 1121.2 135.691 1121.03 Q136.709 1120.85 137.728 1120.85 Q143.515 1120.85 146.894 1124.02 Q150.274 1127.19 150.274 1132.61 Q150.274 1138.19 146.802 1141.29 Q143.33 1144.37 137.01 1144.37 Q134.834 1144.37 132.566 1144 Q130.32 1143.63 127.913 1142.89 L127.913 1138.19 Q129.996 1139.32 132.219 1139.88 Q134.441 1140.43 136.918 1140.43 Q140.922 1140.43 143.26 1138.33 Q145.598 1136.22 145.598 1132.61 Q145.598 1129 143.26 1126.89 Q140.922 1124.78 136.918 1124.78 Q135.043 1124.78 133.168 1125.2 Q131.316 1125.62 129.371 1126.5 L129.371 1109.14 Z" fill="#000000" fill-rule="nonzero" fill-opacity="1" /><path clip-path="url(#clip800)" d="M62.9365 790.759 Q59.3254 790.759 57.4967 794.323 Q55.6912 797.865 55.6912 804.995 Q55.6912 812.101 57.4967 815.666 Q59.3254 819.208 62.9365 819.208 Q66.5707 819.208 68.3763 815.666 Q70.205 812.101 70.205 804.995 Q70.205 797.865 68.3763 794.323 Q66.5707 790.759 62.9365 790.759 M62.9365 787.055 Q68.7467 787.055 71.8022 791.661 Q74.8809 796.245 74.8809 804.995 Q74.8809 813.722 71.8022 818.328 Q68.7467 822.911 62.9365 822.911 Q57.1264 822.911 54.0477 818.328 Q50.9921 813.722 50.9921 804.995 Q50.9921 796.245 54.0477 791.661 Q57.1264 787.055 62.9365 787.055 Z" fill="#000000" fill-rule="nonzero" fill-opacity="1" /><path clip-path="url(#clip800)" d="M83.0984 816.36 L87.9827 816.36 L87.9827 822.24 L83.0984 822.24 L83.0984 816.36 Z" fill="#000000" fill-rule="nonzero" fill-opacity="1" /><path clip-path="url(#clip800)" d="M98.2141 787.68 L116.57 787.68 L116.57 791.615 L102.496 791.615 L102.496 800.087 Q103.515 799.74 104.534 799.578 Q105.552 799.393 106.571 799.393 Q112.358 799.393 115.737 802.564 Q119.117 805.735 119.117 811.152 Q119.117 816.731 115.645 819.833 Q112.172 822.911 105.853 822.911 Q103.677 822.911 101.409 822.541 Q99.1632 822.171 96.7558 821.43 L96.7558 816.731 Q98.8391 817.865 101.061 818.421 Q103.284 818.976 105.76 818.976 Q109.765 818.976 112.103 816.87 Q114.441 814.763 114.441 811.152 Q114.441 807.541 112.103 805.435 Q109.765 803.328 105.76 803.328 Q103.885 803.328 102.01 803.745 Q100.159 804.161 98.2141 805.041 L98.2141 787.68 Z" fill="#000000" fill-rule="nonzero" fill-opacity="1" /><path clip-path="url(#clip800)" d="M138.33 790.759 Q134.719 790.759 132.89 794.323 Q131.084 797.865 131.084 804.995 Q131.084 812.101 132.89 815.666 Q134.719 819.208 138.33 819.208 Q141.964 819.208 143.769 815.666 Q145.598 812.101 145.598 804.995 Q145.598 797.865 143.769 794.323 Q141.964 790.759 138.33 790.759 M138.33 787.055 Q144.14 787.055 147.195 791.661 Q150.274 796.245 150.274 804.995 Q150.274 813.722 147.195 818.328 Q144.14 822.911 138.33 822.911 Q132.519 822.911 129.441 818.328 Q126.385 813.722 126.385 804.995 Q126.385 796.245 129.441 791.661 Q132.519 787.055 138.33 787.055 Z" fill="#000000" fill-rule="nonzero" fill-opacity="1" /><path clip-path="url(#clip800)" d="M63.9319 469.302 Q60.3208 469.302 58.4921 472.867 Q56.6865 476.409 56.6865 483.538 Q56.6865 490.645 58.4921 494.209 Q60.3208 497.751 63.9319 497.751 Q67.5661 497.751 69.3717 494.209 Q71.2004 490.645 71.2004 483.538 Q71.2004 476.409 69.3717 472.867 Q67.5661 469.302 63.9319 469.302 M63.9319 465.598 Q69.742 465.598 72.7976 470.205 Q75.8763 474.788 75.8763 483.538 Q75.8763 492.265 72.7976 496.871 Q69.742 501.455 63.9319 501.455 Q58.1217 501.455 55.043 496.871 Q51.9875 492.265 51.9875 483.538 Q51.9875 474.788 55.043 470.205 Q58.1217 465.598 63.9319 465.598 Z" fill="#000000" fill-rule="nonzero" fill-opacity="1" /><path clip-path="url(#clip800)" d="M84.0938 494.904 L88.978 494.904 L88.978 500.783 L84.0938 500.783 L84.0938 494.904 Z" fill="#000000" fill-rule="nonzero" fill-opacity="1" /><path clip-path="url(#clip800)" d="M97.9826 466.223 L120.205 466.223 L120.205 468.214 L107.658 500.783 L102.774 500.783 L114.58 470.159 L97.9826 470.159 L97.9826 466.223 Z" fill="#000000" fill-rule="nonzero" fill-opacity="1" /><path clip-path="url(#clip800)" d="M129.371 466.223 L147.728 466.223 L147.728 470.159 L133.654 470.159 L133.654 478.631 Q134.672 478.284 135.691 478.122 Q136.709 477.936 137.728 477.936 Q143.515 477.936 146.894 481.108 Q150.274 484.279 150.274 489.696 Q150.274 495.274 146.802 498.376 Q143.33 501.455 137.01 501.455 Q134.834 501.455 132.566 501.084 Q130.32 500.714 127.913 499.973 L127.913 495.274 Q129.996 496.408 132.219 496.964 Q134.441 497.52 136.918 497.52 Q140.922 497.52 143.26 495.413 Q145.598 493.307 145.598 489.696 Q145.598 486.084 143.26 483.978 Q140.922 481.872 136.918 481.872 Q135.043 481.872 133.168 482.288 Q131.316 482.705 129.371 483.584 L129.371 466.223 Z" fill="#000000" fill-rule="nonzero" fill-opacity="1" /><path clip-path="url(#clip800)" d="M53.7467 175.392 L61.3856 175.392 L61.3856 149.026 L53.0754 150.693 L53.0754 146.434 L61.3393 144.767 L66.0152 144.767 L66.0152 175.392 L73.654 175.392 L73.654 179.327 L53.7467 179.327 L53.7467 175.392 Z" fill="#000000" fill-rule="nonzero" fill-opacity="1" /><path clip-path="url(#clip800)" d="M83.0984 173.447 L87.9827 173.447 L87.9827 179.327 L83.0984 179.327 L83.0984 173.447 Z" fill="#000000" fill-rule="nonzero" fill-opacity="1" /><path clip-path="url(#clip800)" d="M108.168 147.846 Q104.557 147.846 102.728 151.41 Q100.922 154.952 100.922 162.082 Q100.922 169.188 102.728 172.753 Q104.557 176.295 108.168 176.295 Q111.802 176.295 113.608 172.753 Q115.436 169.188 115.436 162.082 Q115.436 154.952 113.608 151.41 Q111.802 147.846 108.168 147.846 M108.168 144.142 Q113.978 144.142 117.033 148.748 Q120.112 153.332 120.112 162.082 Q120.112 170.808 117.033 175.415 Q113.978 179.998 108.168 179.998 Q102.358 179.998 99.2789 175.415 Q96.2234 170.808 96.2234 162.082 Q96.2234 153.332 99.2789 148.748 Q102.358 144.142 108.168 144.142 Z" fill="#000000" fill-rule="nonzero" fill-opacity="1" /><path clip-path="url(#clip800)" d="M138.33 147.846 Q134.719 147.846 132.89 151.41 Q131.084 154.952 131.084 162.082 Q131.084 169.188 132.89 172.753 Q134.719 176.295 138.33 176.295 Q141.964 176.295 143.769 172.753 Q145.598 169.188 145.598 162.082 Q145.598 154.952 143.769 151.41 Q141.964 147.846 138.33 147.846 M138.33 144.142 Q144.14 144.142 147.195 148.748 Q150.274 153.332 150.274 162.082 Q150.274 170.808 147.195 175.415 Q144.14 179.998 138.33 179.998 Q132.519 179.998 129.441 175.415 Q126.385 170.808 126.385 162.082 Q126.385 153.332 129.441 148.748 Q132.519 144.142 138.33 144.142 Z" fill="#000000" fill-rule="nonzero" fill-opacity="1" /><path clip-path="url(#clip800)" d="M1189.06 12.096 L1197.25 12.096 L1197.25 37.6572 L1224.39 12.096 L1234.92 12.096 L1204.9 40.2903 L1237.07 72.576 L1226.29 72.576 L1197.25 43.45 L1197.25 72.576 L1189.06 72.576 L1189.06 12.096 Z" fill="#000000" fill-rule="nonzero" fill-opacity="1" /><path clip-path="url(#clip800)" d="M1244.12 34.9026 L1296.05 34.9026 L1296.05 41.7081 L1244.12 41.7081 L1244.12 34.9026 M1244.12 51.4303 L1296.05 51.4303 L1296.05 58.3168 L1244.12 58.3168 L1244.12 51.4303 Z" fill="#000000" fill-rule="nonzero" fill-opacity="1" /><path clip-path="url(#clip800)" d="M1315.13 65.6895 L1328.5 65.6895 L1328.5 19.5497 L1313.95 22.4663 L1313.95 15.0127 L1328.42 12.096 L1336.6 12.096 L1336.6 65.6895 L1349.97 65.6895 L1349.97 72.576 L1315.13 72.576 L1315.13 65.6895 Z" fill="#000000" fill-rule="nonzero" fill-opacity="1" /><polyline clip-path="url(#clip802)" style="stroke:#009af9; stroke-linecap:round; stroke-linejoin:round; stroke-width:4; stroke-opacity:1; fill:none" points="247.59,1447.87 251.677,1447.87 255.765,1447.87 259.853,1447.87 263.94,1447.87 268.028,1447.87 272.116,1447.87 276.203,1447.87 280.291,1447.87 284.379,1447.87 288.467,1447.87 292.554,1447.87 296.642,1447.87 300.73,1447.87 304.817,1447.87 308.905,1447.87 312.993,1447.87 317.08,1447.87 321.168,1447.87 325.256,1447.87 329.344,1447.87 333.431,1447.87 337.519,1447.87 341.607,1447.87 345.694,1447.87 349.782,1447.87 353.87,1447.87 357.957,1447.87 362.045,1447.87 366.133,1447.87 370.221,1447.87 374.308,1447.87 378.396,1447.87 382.484,1447.87 386.571,1447.87 390.659,1447.87 394.747,1447.87 398.834,1447.87 402.922,1447.87 407.01,1447.87 411.098,1447.87 415.185,1447.87 419.273,1447.87 423.361,1447.87 427.448,1447.87 431.536,1447.87 435.624,1447.87 439.712,1447.87 443.799,1447.87 447.887,1447.87 451.975,1447.87 456.062,1447.87 460.15,1447.87 464.238,1447.87 468.325,1447.87 472.413,1447.87 476.501,1447.87 480.589,1447.87 484.676,1447.87 488.764,1447.87 492.852,1447.87 496.939,1447.87 501.027,1447.87 505.115,1447.87 509.202,1447.87 513.29,1447.87 517.378,1447.87 521.466,1447.87 525.553,1447.87 529.641,1447.87 533.729,1447.87 537.816,1447.87 541.904,1447.87 545.992,1447.87 550.079,1447.87 554.167,1447.87 558.255,1447.87 562.343,1447.87 566.43,1447.87 570.518,1447.87 574.606,1426.53 578.693,1408.27 582.781,1395.79 586.869,1385.55 590.956,1376.49 595.044,1367.91 599.132,1361.36 603.22,1354.23 607.307,1347.98 611.395,1340.67 615.483,1335.1 619.57,1330.99 623.658,1323.44 627.746,1319.29 631.833,1312.75 635.921,1306.56 640.009,1305.01 644.097,1298.23 648.184,1292.83 652.272,1287.14 656.36,1287.14 660.447,1280.13 664.535,1275.06 668.623,1269.28 672.711,1264.21 676.798,1264.2 680.886,1259.32 684.974,1254.15 689.061,1250.08 693.149,1244.84 697.237,1239.33 701.324,1233.59 705.412,1233.6 709.5,1233.6 713.588,1228.15 717.675,1222.85 721.763,1218.27 725.851,1214.1 729.938,1209.75 734.026,1205.64 738.114,1200.6 742.201,1193.08 746.289,1190.71 750.377,1190.71 754.465,1190.71 758.552,1190.71 762.64,1186.58 766.728,1180.19 770.815,1175.75 774.903,1172.33 778.991,1167.07 783.078,1162.14 787.166,1162.14 791.254,1155.63 795.342,1151.18 799.429,1147.66 803.517,1142.99 807.605,1137.5 811.692,1129.63 815.78,1126.42 819.868,1126.42 823.955,1126.42 828.043,1126.42 832.131,1126.42 836.219,1126.42 840.306,1126.42 844.394,1126.42 848.482,1116.23 852.569,1111.11 856.657,1106.3 860.745,1102.33 864.832,1097.19 868.92,1095.05 873.008,1090.72 877.096,1086.23 881.183,1080.48 885.271,1080.48 889.359,1080.49 893.446,1073.94 897.534,1069.7 901.622,1065.17 905.71,1062.13 909.797,1058.24 913.885,1053.44 917.973,1049.88 922.06,1045.94 926.148,1040.32 930.236,1034.57 934.323,1026.62 938.411,1019.28 942.499,1019.26 946.587,1019.26 950.674,1019.26 954.762,1019.26 958.85,1019.25 962.937,1019.25 967.025,1019.25 971.113,1019.25 975.2,1019.25 979.288,1019.25 983.376,1019.25 987.464,1019.25 991.551,1019.25 995.639,1019.25 999.727,1011.6 1003.81,1003.97 1007.9,997.834 1011.99,994.064 1016.08,988.664 1020.17,984.976 1024.25,980.278 1028.34,977.469 1032.43,973.337 1036.52,968.309 1040.6,965.688 1044.69,965.688 1048.78,959.583 1052.87,955.176 1056.95,952.059 1061.04,947.842 1065.13,942.884 1069.22,936.735 1073.31,933.543 1077.39,933.543 1081.48,933.543 1085.57,933.543 1089.66,933.543 1093.74,926.353 1097.83,921.595 1101.92,917.214 1106.01,912.11 1110.09,909.623 1114.18,905.401 1118.27,900.397 1122.36,896.8 1126.45,896.802 1130.53,893.66 1134.62,888.813 1138.71,884.558 1142.8,879.717 1146.88,876.392 1150.97,873.415 1155.06,868.826 1159.15,863.391 1163.23,860.43 1167.32,854.67 1171.41,850.869 1175.5,846.133 1179.59,840.685 1183.67,834.609 1187.76,827.376 1191.85,817.688 1195.94,804.96 1200.02,804.96 1204.11,804.96 1208.2,804.96 1212.29,804.96 1216.37,804.96 1220.46,804.96 1224.55,804.96 1228.64,804.96 1232.73,804.96 1236.81,804.96 1240.9,804.96 1244.99,804.96 1249.08,804.96 1253.16,804.96 1257.25,804.96 1261.34,804.96 1265.43,804.96 1269.51,804.96 1273.6,804.96 1277.69,804.96 1281.78,804.96 1285.87,804.96 1289.95,804.96 1294.04,804.96 1298.13,804.96 1302.22,804.96 1306.3,804.96 1310.39,804.96 1314.48,804.96 1318.57,804.96 1322.66,804.96 1326.74,804.96 1330.83,804.96 1334.92,804.96 1339.01,804.96 1343.09,804.96 1347.18,792.232 1351.27,782.51 1355.36,775.288 1359.44,769.273 1363.53,763.798 1367.62,759.047 1371.71,755.265 1375.8,749.516 1379.88,746.495 1383.97,741.099 1388.06,736.512 1392.15,733.504 1396.23,730.226 1400.32,725.363 1404.41,721.117 1408.5,716.291 1412.58,713.106 1416.67,713.101 1420.76,709.536 1424.85,704.522 1428.94,700.296 1433.02,697.818 1437.11,692.707 1441.2,688.291 1445.29,683.573 1449.37,676.377 1453.46,676.377 1457.55,676.377 1461.64,676.377 1465.72,676.377 1469.81,673.167 1473.9,667.01 1477.99,662.085 1482.08,657.861 1486.16,654.737 1490.25,650.354 1494.34,644.232 1498.43,644.232 1502.51,641.629 1506.6,636.607 1510.69,632.485 1514.78,629.611 1518.86,624.944 1522.95,621.268 1527.04,615.889 1531.13,612.086 1535.22,605.946 1539.3,598.322 1543.39,590.645 1547.48,590.644 1551.57,590.644 1555.65,590.653 1559.74,590.654 1563.83,590.655 1567.92,590.657 1572,590.658 1576.09,590.659 1580.18,590.66 1584.27,590.662 1588.36,590.663 1592.44,590.665 1596.53,590.666 1600.62,590.668 1604.71,583.306 1608.79,575.332 1612.88,569.632 1616.97,563.994 1621.06,560.031 1625.15,556.5 1629.23,551.714 1633.32,547.795 1637.41,544.726 1641.5,540.252 1645.58,535.989 1649.67,529.427 1653.76,529.423 1657.85,529.42 1661.93,523.663 1666.02,519.232 1670.11,514.866 1674.2,512.725 1678.29,507.608 1682.37,503.584 1686.46,498.813 1690.55,493.741 1694.64,483.503 1698.72,483.503 1702.81,483.503 1706.9,483.503 1710.99,483.503 1715.07,483.503 1719.16,483.503 1723.25,483.503 1727.34,480.287 1731.43,472.393 1735.51,466.957 1739.6,462.277 1743.69,458.796 1747.78,454.253 1751.86,447.771 1755.95,447.795 1760.04,442.812 1764.13,437.575 1768.21,434.141 1772.3,429.692 1776.39,423.346 1780.48,419.212 1784.57,419.212 1788.65,419.212 1792.74,419.212 1796.83,416.835 1800.92,409.315 1805,404.29 1809.09,400.15 1813.18,395.834 1817.27,391.682 1821.35,387.066 1825.44,381.777 1829.53,376.376 1833.62,376.377 1837.71,376.377 1841.79,370.518 1845.88,365.071 1849.97,359.902 1854.06,355.813 1858.14,350.661 1862.23,345.763 1866.32,345.765 1870.41,340.636 1874.49,334.86 1878.58,329.738 1882.67,322.775 1886.76,322.775 1890.85,317.117 1894.93,311.705 1899.02,304.92 1903.11,303.351 1907.2,297.115 1911.28,290.63 1915.37,286.502 1919.46,278.955 1923.55,274.835 1927.63,269.167 1931.72,261.949 1935.81,255.762 1939.9,248.473 1943.99,241.912 1948.07,233.525 1952.16,224.407 1956.25,214.129 1960.34,201.664 1964.42,183.398 1968.51,162.047 1972.6,162.047 1976.69,162.047 1980.78,162.047 1984.86,162.047 1988.95,162.047 1993.04,162.047 1997.13,162.047 2001.21,162.047 2005.3,162.047 2009.39,162.047 2013.48,162.047 2017.56,162.047 2021.65,162.047 2025.74,162.047 2029.83,162.047 2033.92,162.047 2038,162.047 2042.09,162.047 2046.18,162.047 2050.27,162.047 2054.35,162.047 2058.44,162.047 2062.53,162.047 2066.62,162.047 2070.7,162.047 2074.79,162.047 2078.88,162.047 2082.97,162.047 2087.06,162.047 2091.14,162.047 2095.23,162.047 2099.32,162.047 2103.41,162.047 2107.49,162.047 2111.58,162.047 2115.67,162.047 2119.76,162.047 2123.84,162.047 2127.93,162.047 2132.02,162.047 2136.11,162.047 2140.2,162.047 2144.28,162.047 2148.37,162.047 2152.46,162.047 2156.55,162.047 2160.63,162.047 2164.72,162.047 2168.81,162.047 2172.9,162.047 2176.98,162.047 2181.07,162.047 2185.16,162.047 2189.25,162.047 2193.34,162.047 2197.42,162.047 2201.51,162.047 2205.6,162.047 2209.69,162.047 2213.77,162.047 2217.86,162.047 2221.95,162.047 2226.04,162.047 2230.12,162.047 2234.21,162.047 2238.3,162.047 2242.39,162.047 2246.48,162.047 2250.56,162.047 2254.65,162.047 2258.74,162.047 2262.83,162.047 2266.91,162.047 2271,162.047 2275.09,162.047 2279.18,162.047 2283.26,162.047 2287.35,162.047 2291.44,162.047 "/>
<path clip-path="url(#clip800)" d="M258.49 272.585 L527.569 272.585 L527.569 168.905 L258.49 168.905  Z" fill="#ffffff" fill-rule="evenodd" fill-opacity="1"/>
<polyline clip-path="url(#clip800)" style="stroke:#000000; stroke-linecap:round; stroke-linejoin:round; stroke-width:4; stroke-opacity:1; fill:none" points="258.49,272.585 527.569,272.585 527.569,168.905 258.49,168.905 258.49,272.585 "/>
<polyline clip-path="url(#clip800)" style="stroke:#009af9; stroke-linecap:round; stroke-linejoin:round; stroke-width:4; stroke-opacity:1; fill:none" points="282.562,220.745 426.994,220.745 "/>
<path clip-path="url(#clip800)" d="M464.909 240.432 Q463.103 245.062 461.39 246.474 Q459.677 247.886 456.807 247.886 L453.404 247.886 L453.404 244.321 L455.904 244.321 Q457.663 244.321 458.636 243.488 Q459.608 242.654 460.788 239.552 L461.552 237.608 L451.066 212.099 L455.58 212.099 L463.682 232.377 L471.784 212.099 L476.298 212.099 L464.909 240.432 Z" fill="#000000" fill-rule="nonzero" fill-opacity="1" /><path clip-path="url(#clip800)" d="M483.589 234.089 L491.228 234.089 L491.228 207.724 L482.918 209.391 L482.918 205.131 L491.182 203.465 L495.858 203.465 L495.858 234.089 L503.497 234.089 L503.497 238.025 L483.589 238.025 L483.589 234.089 Z" fill="#000000" fill-rule="nonzero" fill-opacity="1" /><path clip-path="url(#clip800)" d="M642.93 1057.87 L642.93 1055.25 Q653.013 1055.25 658.219 1049.88 Q659.654 1049.88 659.9 1050.21 Q660.146 1050.53 660.146 1052.05 L660.146 1099.15 Q660.146 1101.65 661.375 1102.43 Q662.605 1103.21 667.974 1103.21 L670.639 1103.21 L670.639 1105.79 Q667.688 1105.54 657.03 1105.54 Q646.373 1105.54 643.463 1105.79 L643.463 1103.21 L646.127 1103.21 Q651.415 1103.21 652.685 1102.47 Q653.956 1101.69 653.956 1099.15 L653.956 1055.66 Q649.57 1057.87 642.93 1057.87 Z" fill="#000000" fill-rule="nonzero" fill-opacity="1" /><path clip-path="url(#clip800)" d="M637.93 1128.19 L683.749 1128.19 L683.749 1123.71 L637.93 1123.71  Z" fill="#000000" fill-rule="evenodd" fill-opacity="1"/>
<path clip-path="url(#clip800)" d="M637.93 1188.57 L637.93 1185.98 L663.712 1146.59 Q664.368 1145.57 665.393 1145.61 Q666.336 1145.61 666.541 1145.98 Q666.745 1146.35 666.745 1147.78 L666.745 1185.98 L675.148 1185.98 L675.148 1188.57 L666.745 1188.57 L666.745 1195.86 Q666.745 1198.28 667.729 1199.06 Q668.754 1199.84 673.099 1199.84 L674.861 1199.84 L674.861 1202.42 Q671.418 1202.17 663.466 1202.17 Q655.555 1202.17 652.112 1202.42 L652.112 1199.84 L653.875 1199.84 Q658.22 1199.84 659.244 1199.1 Q660.269 1198.32 660.269 1195.86 L660.269 1188.57 L637.93 1188.57 M640.307 1185.98 L660.761 1185.98 L660.761 1154.67 L640.307 1185.98 Z" fill="#000000" fill-rule="nonzero" fill-opacity="1" /><path clip-path="url(#clip800)" d="M847.495 954.56 L847.495 951.937 Q857.578 951.937 862.784 946.567 Q864.218 946.567 864.464 946.895 Q864.71 947.223 864.71 948.739 L864.71 995.836 Q864.71 998.336 865.94 999.115 Q867.17 999.894 872.539 999.894 L875.204 999.894 L875.204 1002.48 Q872.252 1002.23 861.595 1002.23 Q850.938 1002.23 848.028 1002.48 L848.028 999.894 L850.692 999.894 Q855.98 999.894 857.25 999.156 Q858.521 998.377 858.521 995.836 L858.521 952.347 Q854.135 954.56 847.495 954.56 Z" fill="#000000" fill-rule="nonzero" fill-opacity="1" /><path clip-path="url(#clip800)" d="M843.495 1024.88 L886.955 1024.88 L886.955 1020.4 L843.495 1020.4  Z" fill="#000000" fill-rule="evenodd" fill-opacity="1"/>
<path clip-path="url(#clip800)" d="M843.495 1086.86 Q843.495 1084.36 844.929 1083.17 Q846.364 1081.98 848.209 1081.98 Q850.135 1081.98 851.488 1083.25 Q852.881 1084.48 852.881 1086.65 Q852.881 1088.99 851.242 1090.3 Q849.643 1091.61 847.348 1091.29 Q849.356 1094.65 853.045 1096.16 Q856.775 1097.68 860.218 1097.68 Q863.825 1097.68 866.736 1094.56 Q869.687 1091.45 869.687 1083.83 Q869.687 1077.35 867.146 1073.62 Q864.645 1069.89 859.686 1069.89 L855.997 1069.89 Q854.726 1069.89 854.357 1069.77 Q853.988 1069.64 853.988 1068.95 Q853.988 1068.13 855.259 1067.96 Q856.529 1067.96 858.538 1067.72 Q863.416 1067.55 865.998 1063.33 Q868.334 1059.4 868.334 1053.78 Q868.334 1048.66 865.875 1046.52 Q863.457 1044.35 860.3 1044.35 Q857.349 1044.35 854.111 1045.58 Q850.873 1046.81 849.11 1049.56 Q854.316 1049.56 854.316 1053.78 Q854.316 1055.62 853.127 1056.85 Q851.98 1058.04 850.053 1058.04 Q848.209 1058.04 846.979 1056.9 Q845.749 1055.71 845.749 1053.7 Q845.749 1048.9 850.012 1045.58 Q854.316 1042.26 860.628 1042.26 Q866.859 1042.26 871.449 1045.54 Q876.081 1048.82 876.081 1053.86 Q876.081 1058.82 872.802 1062.88 Q869.523 1066.94 864.317 1068.62 Q870.712 1069.89 874.524 1074.23 Q878.336 1078.54 878.336 1083.83 Q878.336 1090.38 873.171 1095.22 Q868.006 1100.02 860.464 1100.02 Q853.496 1100.02 848.495 1096.24 Q843.495 1092.47 843.495 1086.86 Z" fill="#000000" fill-rule="nonzero" fill-opacity="1" /><path clip-path="url(#clip800)" d="M1460.3 736.884 L1460.3 734.26 Q1470.38 734.26 1475.59 728.891 Q1477.02 728.891 1477.27 729.219 Q1477.51 729.546 1477.51 731.063 L1477.51 778.16 Q1477.51 780.66 1478.74 781.439 Q1479.97 782.218 1485.34 782.218 L1488.01 782.218 L1488.01 784.8 Q1485.06 784.554 1474.4 784.554 Q1463.74 784.554 1460.83 784.8 L1460.83 782.218 L1463.5 782.218 Q1468.78 782.218 1470.05 781.48 Q1471.32 780.701 1471.32 778.16 L1471.32 734.67 Q1466.94 736.884 1460.3 736.884 Z" fill="#000000" fill-rule="nonzero" fill-opacity="1" /><path clip-path="url(#clip800)" d="M1457.3 807.2 L1499.46 807.2 L1499.46 802.72 L1457.3 802.72  Z" fill="#000000" fill-rule="evenodd" fill-opacity="1"/>
<path clip-path="url(#clip800)" d="M1457.3 880.495 Q1457.3 878.978 1457.42 878.528 Q1457.59 878.077 1458.24 877.38 L1474.35 859.427 Q1483.16 849.507 1483.16 840.858 Q1483.16 835.243 1480.21 831.226 Q1477.3 827.209 1471.93 827.209 Q1468.24 827.209 1465.13 829.463 Q1462.01 831.718 1460.58 835.735 Q1460.82 835.653 1461.68 835.653 Q1463.77 835.653 1464.92 836.964 Q1466.11 838.276 1466.11 840.039 Q1466.11 842.293 1464.64 843.4 Q1463.2 844.465 1461.77 844.465 Q1461.19 844.465 1460.41 844.342 Q1459.68 844.219 1458.49 843.072 Q1457.3 841.883 1457.3 839.793 Q1457.3 833.931 1461.73 829.258 Q1466.19 824.586 1473 824.586 Q1480.7 824.586 1485.75 829.176 Q1490.83 833.726 1490.83 840.858 Q1490.83 843.359 1490.05 845.654 Q1489.31 847.909 1488.29 849.671 Q1487.3 851.434 1484.6 854.262 Q1481.89 857.09 1479.72 859.099 Q1477.55 861.107 1472.67 865.37 L1463.77 874.019 L1478.9 874.019 Q1486.28 874.019 1486.85 873.363 Q1487.67 872.174 1488.7 865.903 L1490.83 865.903 L1488.45 880.495 L1457.3 880.495 Z" fill="#000000" fill-rule="nonzero" fill-opacity="1" /><path clip-path="url(#clip800)" d="M1150.72 912.469 Q1150.72 910.952 1150.84 910.501 Q1151.01 910.05 1151.66 909.353 L1167.77 891.4 Q1176.59 881.481 1176.59 872.832 Q1176.59 867.216 1173.63 863.199 Q1170.72 859.182 1165.35 859.182 Q1161.66 859.182 1158.55 861.437 Q1155.43 863.691 1154 867.708 Q1154.25 867.626 1155.11 867.626 Q1157.2 867.626 1158.34 868.938 Q1159.53 870.25 1159.53 872.012 Q1159.53 874.267 1158.06 875.373 Q1156.62 876.439 1155.19 876.439 Q1154.61 876.439 1153.84 876.316 Q1153.1 876.193 1151.91 875.045 Q1150.72 873.857 1150.72 871.766 Q1150.72 865.905 1155.15 861.232 Q1159.62 856.559 1166.42 856.559 Q1174.13 856.559 1179.17 861.15 Q1184.25 865.7 1184.25 872.832 Q1184.25 875.332 1183.47 877.628 Q1182.73 879.882 1181.71 881.645 Q1180.72 883.407 1178.02 886.235 Q1175.31 889.064 1173.14 891.072 Q1170.97 893.081 1166.09 897.344 L1157.2 905.992 L1172.32 905.992 Q1179.7 905.992 1180.27 905.336 Q1181.09 904.148 1182.12 897.876 L1184.25 897.876 L1181.87 912.469 L1150.72 912.469 Z" fill="#000000" fill-rule="nonzero" fill-opacity="1" /><path clip-path="url(#clip800)" d="M1150.72 934.869 L1192.88 934.869 L1192.88 930.389 L1150.72 930.389  Z" fill="#000000" fill-rule="evenodd" fill-opacity="1"/>
<path clip-path="url(#clip800)" d="M1150.72 994.637 Q1150.72 992.137 1152.07 991.194 Q1153.43 990.21 1154.86 990.21 Q1156.79 990.21 1157.89 991.44 Q1159.04 992.629 1159.04 994.309 Q1159.04 995.99 1157.89 997.219 Q1156.79 998.408 1154.86 998.408 Q1153.92 998.408 1153.43 998.244 Q1154.53 1002.1 1157.89 1004.88 Q1161.3 1007.67 1165.76 1007.67 Q1171.38 1007.67 1174.74 1002.22 Q1176.75 998.695 1176.75 990.702 Q1176.75 983.652 1175.23 980.127 Q1172.9 974.757 1168.1 974.757 Q1161.3 974.757 1157.28 980.619 Q1156.79 981.357 1156.21 981.398 Q1155.39 981.398 1155.19 980.947 Q1155.02 980.455 1155.02 979.184 L1155.02 954.345 Q1155.02 952.336 1155.84 952.336 Q1156.17 952.336 1156.87 952.582 Q1162.16 954.918 1168.02 954.959 Q1174.04 954.959 1179.45 952.5 Q1179.86 952.254 1180.11 952.254 Q1180.93 952.254 1180.97 953.197 Q1180.97 953.525 1180.27 954.509 Q1179.62 955.451 1178.18 956.722 Q1176.75 957.952 1174.9 959.14 Q1173.06 960.329 1170.35 961.149 Q1167.69 961.928 1164.74 961.928 Q1161.21 961.928 1157.61 960.821 L1157.61 977.176 Q1161.95 972.913 1168.26 972.913 Q1174.99 972.913 1179.62 978.323 Q1184.25 983.734 1184.25 991.276 Q1184.25 999.187 1178.76 1004.6 Q1173.31 1010.01 1165.93 1010.01 Q1159.21 1010.01 1154.94 1005.21 Q1150.72 1000.42 1150.72 994.637 Z" fill="#000000" fill-rule="nonzero" fill-opacity="1" /><path clip-path="url(#clip800)" d="M1354.46 643.076 Q1354.46 640.576 1355.89 639.387 Q1357.33 638.198 1359.17 638.198 Q1361.1 638.198 1362.45 639.469 Q1363.84 640.699 1363.84 642.871 Q1363.84 645.208 1362.2 646.519 Q1360.61 647.831 1358.31 647.503 Q1360.32 650.864 1364.01 652.381 Q1367.74 653.897 1371.18 653.897 Q1374.79 653.897 1377.7 650.782 Q1380.65 647.667 1380.65 640.043 Q1380.65 633.567 1378.11 629.837 Q1375.61 626.107 1370.65 626.107 L1366.96 626.107 Q1365.69 626.107 1365.32 625.984 Q1364.95 625.861 1364.95 625.164 Q1364.95 624.344 1366.22 624.18 Q1367.49 624.18 1369.5 623.934 Q1374.38 623.77 1376.96 619.548 Q1379.3 615.613 1379.3 609.998 Q1379.3 604.874 1376.84 602.743 Q1374.42 600.57 1371.26 600.57 Q1368.31 600.57 1365.07 601.8 Q1361.84 603.03 1360.07 605.776 Q1365.28 605.776 1365.28 609.998 Q1365.28 611.842 1364.09 613.072 Q1362.94 614.261 1361.02 614.261 Q1359.17 614.261 1357.94 613.113 Q1356.71 611.924 1356.71 609.916 Q1356.71 605.12 1360.97 601.8 Q1365.28 598.48 1371.59 598.48 Q1377.82 598.48 1382.41 601.759 Q1387.04 605.038 1387.04 610.08 Q1387.04 615.04 1383.76 619.097 Q1380.49 623.155 1375.28 624.836 Q1381.67 626.107 1385.49 630.452 Q1389.3 634.755 1389.3 640.043 Q1389.3 646.601 1384.13 651.438 Q1378.97 656.234 1371.43 656.234 Q1364.46 656.234 1359.46 652.463 Q1354.46 648.692 1354.46 643.076 Z" fill="#000000" fill-rule="nonzero" fill-opacity="1" /><path clip-path="url(#clip800)" d="M1354.46 678.617 L1397.92 678.617 L1397.92 674.137 L1354.46 674.137  Z" fill="#000000" fill-rule="evenodd" fill-opacity="1"/>
<path clip-path="url(#clip800)" d="M1355.46 738.386 Q1355.46 735.886 1356.81 734.943 Q1358.16 733.959 1359.6 733.959 Q1361.52 733.959 1362.63 735.189 Q1363.78 736.377 1363.78 738.058 Q1363.78 739.739 1362.63 740.968 Q1361.52 742.157 1359.6 742.157 Q1358.65 742.157 1358.16 741.993 Q1359.27 745.846 1362.63 748.633 Q1366.03 751.421 1370.5 751.421 Q1376.12 751.421 1379.48 745.969 Q1381.49 742.444 1381.49 734.451 Q1381.49 727.401 1379.97 723.876 Q1377.63 718.506 1372.84 718.506 Q1366.03 718.506 1362.02 724.368 Q1361.52 725.105 1360.95 725.146 Q1360.13 725.146 1359.93 724.696 Q1359.76 724.204 1359.76 722.933 L1359.76 698.093 Q1359.76 696.085 1360.58 696.085 Q1360.91 696.085 1361.61 696.331 Q1366.89 698.667 1372.75 698.708 Q1378.78 698.708 1384.19 696.249 Q1384.6 696.003 1384.85 696.003 Q1385.67 696.003 1385.71 696.946 Q1385.71 697.274 1385.01 698.257 Q1384.35 699.2 1382.92 700.471 Q1381.49 701.701 1379.64 702.889 Q1377.8 704.078 1375.09 704.898 Q1372.43 705.676 1369.48 705.676 Q1365.95 705.676 1362.34 704.57 L1362.34 720.924 Q1366.69 716.662 1373 716.662 Q1379.72 716.662 1384.35 722.072 Q1388.99 727.483 1388.99 735.025 Q1388.99 742.936 1383.49 748.346 Q1378.04 753.757 1370.66 753.757 Q1363.94 753.757 1359.68 748.961 Q1355.46 744.165 1355.46 738.386 Z" fill="#000000" fill-rule="nonzero" fill-opacity="1" /><path clip-path="url(#clip800)" d="M1662.04 569.582 Q1662.04 568.065 1662.16 567.614 Q1662.32 567.163 1662.98 566.466 L1679.09 548.513 Q1687.9 538.594 1687.9 529.945 Q1687.9 524.329 1684.95 520.312 Q1682.04 516.296 1676.67 516.296 Q1672.98 516.296 1669.86 518.55 Q1666.75 520.804 1665.31 524.821 Q1665.56 524.739 1666.42 524.739 Q1668.51 524.739 1669.66 526.051 Q1670.85 527.363 1670.85 529.125 Q1670.85 531.38 1669.37 532.486 Q1667.94 533.552 1666.5 533.552 Q1665.93 533.552 1665.15 533.429 Q1664.41 533.306 1663.22 532.158 Q1662.04 530.97 1662.04 528.879 Q1662.04 523.018 1666.46 518.345 Q1670.93 513.672 1677.73 513.672 Q1685.44 513.672 1690.48 518.263 Q1695.56 522.813 1695.56 529.945 Q1695.56 532.445 1694.79 534.741 Q1694.05 536.995 1693.02 538.758 Q1692.04 540.52 1689.33 543.348 Q1686.63 546.177 1684.46 548.185 Q1682.28 550.194 1677.41 554.457 L1668.51 563.105 L1683.64 563.105 Q1691.01 563.105 1691.59 562.449 Q1692.41 561.261 1693.43 554.989 L1695.56 554.989 L1693.19 569.582 L1662.04 569.582 Z" fill="#000000" fill-rule="nonzero" fill-opacity="1" /><path clip-path="url(#clip800)" d="M1661.04 591.982 L1704.5 591.982 L1704.5 587.502 L1661.04 587.502  Z" fill="#000000" fill-rule="evenodd" fill-opacity="1"/>
<path clip-path="url(#clip800)" d="M1661.04 653.964 Q1661.04 651.463 1662.47 650.274 Q1663.9 649.086 1665.75 649.086 Q1667.68 649.086 1669.03 650.356 Q1670.42 651.586 1670.42 653.759 Q1670.42 656.095 1668.78 657.407 Q1667.18 658.718 1664.89 658.39 Q1666.9 661.751 1670.59 663.268 Q1674.32 664.785 1677.76 664.785 Q1681.37 664.785 1684.28 661.67 Q1687.23 658.554 1687.23 650.93 Q1687.23 644.454 1684.69 640.724 Q1682.19 636.994 1677.23 636.994 L1673.54 636.994 Q1672.27 636.994 1671.9 636.871 Q1671.53 636.748 1671.53 636.051 Q1671.53 635.231 1672.8 635.067 Q1674.07 635.067 1676.08 634.822 Q1680.96 634.658 1683.54 630.436 Q1685.87 626.501 1685.87 620.885 Q1685.87 615.762 1683.42 613.63 Q1681 611.458 1677.84 611.458 Q1674.89 611.458 1671.65 612.687 Q1668.41 613.917 1666.65 616.663 Q1671.86 616.663 1671.86 620.885 Q1671.86 622.73 1670.67 623.959 Q1669.52 625.148 1667.59 625.148 Q1665.75 625.148 1664.52 624 Q1663.29 622.812 1663.29 620.803 Q1663.29 616.007 1667.55 612.687 Q1671.86 609.367 1678.17 609.367 Q1684.4 609.367 1688.99 612.646 Q1693.62 615.925 1693.62 620.967 Q1693.62 625.927 1690.34 629.985 Q1687.06 634.043 1681.86 635.723 Q1688.25 636.994 1692.06 641.339 Q1695.88 645.643 1695.88 650.93 Q1695.88 657.489 1690.71 662.325 Q1685.55 667.121 1678 667.121 Q1671.04 667.121 1666.04 663.35 Q1661.04 659.579 1661.04 653.964 Z" fill="#000000" fill-rule="nonzero" fill-opacity="1" /><path clip-path="url(#clip800)" d="M1865.24 450.648 Q1865.24 448.147 1866.68 446.959 Q1868.11 445.77 1869.95 445.77 Q1871.88 445.77 1873.23 447.041 Q1874.63 448.27 1874.63 450.443 Q1874.63 452.779 1872.99 454.091 Q1871.39 455.402 1869.09 455.074 Q1871.1 458.436 1874.79 459.952 Q1878.52 461.469 1881.96 461.469 Q1885.57 461.469 1888.48 458.354 Q1891.43 455.238 1891.43 447.614 Q1891.43 441.138 1888.89 437.408 Q1886.39 433.678 1881.43 433.678 L1877.74 433.678 Q1876.47 433.678 1876.1 433.555 Q1875.73 433.432 1875.73 432.735 Q1875.73 431.916 1877 431.752 Q1878.28 431.752 1880.28 431.506 Q1885.16 431.342 1887.74 427.12 Q1890.08 423.185 1890.08 417.569 Q1890.08 412.446 1887.62 410.314 Q1885.2 408.142 1882.05 408.142 Q1879.09 408.142 1875.86 409.371 Q1872.62 410.601 1870.86 413.347 Q1876.06 413.347 1876.06 417.569 Q1876.06 419.414 1874.87 420.643 Q1873.73 421.832 1871.8 421.832 Q1869.95 421.832 1868.72 420.684 Q1867.49 419.496 1867.49 417.487 Q1867.49 412.692 1871.76 409.371 Q1876.06 406.051 1882.37 406.051 Q1888.6 406.051 1893.2 409.33 Q1897.83 412.61 1897.83 417.651 Q1897.83 422.611 1894.55 426.669 Q1891.27 430.727 1886.06 432.407 Q1892.46 433.678 1896.27 438.023 Q1900.08 442.327 1900.08 447.614 Q1900.08 454.173 1894.92 459.009 Q1889.75 463.805 1882.21 463.805 Q1875.24 463.805 1870.24 460.034 Q1865.24 456.263 1865.24 450.648 Z" fill="#000000" fill-rule="nonzero" fill-opacity="1" /><path clip-path="url(#clip800)" d="M1864.24 486.189 L1910.06 486.189 L1910.06 481.709 L1864.24 481.709  Z" fill="#000000" fill-rule="evenodd" fill-opacity="1"/>
<path clip-path="url(#clip800)" d="M1864.24 546.567 L1864.24 543.985 L1890.02 504.594 Q1890.68 503.569 1891.7 503.61 Q1892.65 503.61 1892.85 503.979 Q1893.06 504.348 1893.06 505.783 L1893.06 543.985 L1901.46 543.985 L1901.46 546.567 L1893.06 546.567 L1893.06 553.863 Q1893.06 556.281 1894.04 557.06 Q1895.06 557.839 1899.41 557.839 L1901.17 557.839 L1901.17 560.421 Q1897.73 560.175 1889.78 560.175 Q1881.87 560.175 1878.42 560.421 L1878.42 557.839 L1880.19 557.839 Q1884.53 557.839 1885.55 557.101 Q1886.58 556.322 1886.58 553.863 L1886.58 546.567 L1864.24 546.567 M1866.62 543.985 L1887.07 543.985 L1887.07 512.669 L1866.62 543.985 Z" fill="#000000" fill-rule="nonzero" fill-opacity="1" /></svg>
