<?xml version="1.0" encoding="utf-8"?>
<svg xmlns="http://www.w3.org/2000/svg" xmlns:xlink="http://www.w3.org/1999/xlink" width="600" height="400" viewBox="0 0 2400 1600">
<defs>
  <clipPath id="clip500">
    <rect x="0" y="0" width="2400" height="1600"/>
  </clipPath>
</defs>
<path clip-path="url(#clip500)" d="
M0 1600 L2400 1600 L2400 0 L0 0  Z
  " fill="#ffffff" fill-rule="evenodd" fill-opacity="1"/>
<defs>
  <clipPath id="clip501">
    <rect x="480" y="0" width="1681" height="1600"/>
  </clipPath>
</defs>
<path clip-path="url(#clip500)" d="
M147.478 1486.45 L2352.76 1486.45 L2352.76 47.2441 L147.478 47.2441  Z
  " fill="#ffffff" fill-rule="evenodd" fill-opacity="1"/>
<defs>
  <clipPath id="clip502">
    <rect x="147" y="47" width="2206" height="1440"/>
  </clipPath>
</defs>
<polyline clip-path="url(#clip502)" style="stroke:#000000; stroke-linecap:round; stroke-linejoin:round; stroke-width:2; stroke-opacity:0.1; fill:none" points="
  156.272,1486.45 156.272,47.2441 
  "/>
<polyline clip-path="url(#clip502)" style="stroke:#000000; stroke-linecap:round; stroke-linejoin:round; stroke-width:2; stroke-opacity:0.1; fill:none" points="
  692.47,1486.45 692.47,47.2441 
  "/>
<polyline clip-path="url(#clip502)" style="stroke:#000000; stroke-linecap:round; stroke-linejoin:round; stroke-width:2; stroke-opacity:0.1; fill:none" points="
  1228.67,1486.45 1228.67,47.2441 
  "/>
<polyline clip-path="url(#clip502)" style="stroke:#000000; stroke-linecap:round; stroke-linejoin:round; stroke-width:2; stroke-opacity:0.1; fill:none" points="
  1764.87,1486.45 1764.87,47.2441 
  "/>
<polyline clip-path="url(#clip502)" style="stroke:#000000; stroke-linecap:round; stroke-linejoin:round; stroke-width:2; stroke-opacity:0.1; fill:none" points="
  2301.07,1486.45 2301.07,47.2441 
  "/>
<polyline clip-path="url(#clip500)" style="stroke:#000000; stroke-linecap:round; stroke-linejoin:round; stroke-width:4; stroke-opacity:1; fill:none" points="
  147.478,1486.45 2352.76,1486.45 
  "/>
<polyline clip-path="url(#clip500)" style="stroke:#000000; stroke-linecap:round; stroke-linejoin:round; stroke-width:4; stroke-opacity:1; fill:none" points="
  156.272,1486.45 156.272,1467.55 
  "/>
<polyline clip-path="url(#clip500)" style="stroke:#000000; stroke-linecap:round; stroke-linejoin:round; stroke-width:4; stroke-opacity:1; fill:none" points="
  692.47,1486.45 692.47,1467.55 
  "/>
<polyline clip-path="url(#clip500)" style="stroke:#000000; stroke-linecap:round; stroke-linejoin:round; stroke-width:4; stroke-opacity:1; fill:none" points="
  1228.67,1486.45 1228.67,1467.55 
  "/>
<polyline clip-path="url(#clip500)" style="stroke:#000000; stroke-linecap:round; stroke-linejoin:round; stroke-width:4; stroke-opacity:1; fill:none" points="
  1764.87,1486.45 1764.87,1467.55 
  "/>
<polyline clip-path="url(#clip500)" style="stroke:#000000; stroke-linecap:round; stroke-linejoin:round; stroke-width:4; stroke-opacity:1; fill:none" points="
  2301.07,1486.45 2301.07,1467.55 
  "/>
<path clip-path="url(#clip500)" d="M156.272 1517.37 Q152.66 1517.37 150.832 1520.93 Q149.026 1524.47 149.026 1531.6 Q149.026 1538.71 150.832 1542.27 Q152.66 1545.82 156.272 1545.82 Q159.906 1545.82 161.711 1542.27 Q163.54 1538.71 163.54 1531.6 Q163.54 1524.47 161.711 1520.93 Q159.906 1517.37 156.272 1517.37 M156.272 1513.66 Q162.082 1513.66 165.137 1518.27 Q168.216 1522.85 168.216 1531.6 Q168.216 1540.33 165.137 1544.94 Q162.082 1549.52 156.272 1549.52 Q150.461 1549.52 147.383 1544.94 Q144.327 1540.33 144.327 1531.6 Q144.327 1522.85 147.383 1518.27 Q150.461 1513.66 156.272 1513.66 Z" fill="#000000" fill-rule="evenodd" fill-opacity="1" /><path clip-path="url(#clip500)" d="M667.158 1544.91 L674.797 1544.91 L674.797 1518.55 L666.487 1520.21 L666.487 1515.95 L674.75 1514.29 L679.426 1514.29 L679.426 1544.91 L687.065 1544.91 L687.065 1548.85 L667.158 1548.85 L667.158 1544.91 Z" fill="#000000" fill-rule="evenodd" fill-opacity="1" /><path clip-path="url(#clip500)" d="M706.51 1517.37 Q702.898 1517.37 701.07 1520.93 Q699.264 1524.47 699.264 1531.6 Q699.264 1538.71 701.07 1542.27 Q702.898 1545.82 706.51 1545.82 Q710.144 1545.82 711.949 1542.27 Q713.778 1538.71 713.778 1531.6 Q713.778 1524.47 711.949 1520.93 Q710.144 1517.37 706.51 1517.37 M706.51 1513.66 Q712.32 1513.66 715.375 1518.27 Q718.454 1522.85 718.454 1531.6 Q718.454 1540.33 715.375 1544.94 Q712.32 1549.52 706.51 1549.52 Q700.699 1549.52 697.621 1544.94 Q694.565 1540.33 694.565 1531.6 Q694.565 1522.85 697.621 1518.27 Q700.699 1513.66 706.51 1513.66 Z" fill="#000000" fill-rule="evenodd" fill-opacity="1" /><path clip-path="url(#clip500)" d="M1207.44 1544.91 L1223.76 1544.91 L1223.76 1548.85 L1201.82 1548.85 L1201.82 1544.91 Q1204.48 1542.16 1209.06 1537.53 Q1213.67 1532.88 1214.85 1531.53 Q1217.09 1529.01 1217.97 1527.27 Q1218.88 1525.51 1218.88 1523.82 Q1218.88 1521.07 1216.93 1519.33 Q1215.01 1517.6 1211.91 1517.6 Q1209.71 1517.6 1207.26 1518.36 Q1204.83 1519.13 1202.05 1520.68 L1202.05 1515.95 Q1204.87 1514.82 1207.33 1514.24 Q1209.78 1513.66 1211.82 1513.66 Q1217.19 1513.66 1220.38 1516.35 Q1223.58 1519.03 1223.58 1523.52 Q1223.58 1525.65 1222.77 1527.57 Q1221.98 1529.47 1219.87 1532.07 Q1219.29 1532.74 1216.19 1535.95 Q1213.09 1539.15 1207.44 1544.91 Z" fill="#000000" fill-rule="evenodd" fill-opacity="1" /><path clip-path="url(#clip500)" d="M1243.58 1517.37 Q1239.97 1517.37 1238.14 1520.93 Q1236.33 1524.47 1236.33 1531.6 Q1236.33 1538.71 1238.14 1542.27 Q1239.97 1545.82 1243.58 1545.82 Q1247.21 1545.82 1249.02 1542.27 Q1250.84 1538.71 1250.84 1531.6 Q1250.84 1524.47 1249.02 1520.93 Q1247.21 1517.37 1243.58 1517.37 M1243.58 1513.66 Q1249.39 1513.66 1252.44 1518.27 Q1255.52 1522.85 1255.52 1531.6 Q1255.52 1540.33 1252.44 1544.94 Q1249.39 1549.52 1243.58 1549.52 Q1237.77 1549.52 1234.69 1544.94 Q1231.63 1540.33 1231.63 1531.6 Q1231.63 1522.85 1234.69 1518.27 Q1237.77 1513.66 1243.58 1513.66 Z" fill="#000000" fill-rule="evenodd" fill-opacity="1" /><path clip-path="url(#clip500)" d="M1753.71 1530.21 Q1757.07 1530.93 1758.94 1533.2 Q1760.84 1535.47 1760.84 1538.8 Q1760.84 1543.92 1757.32 1546.72 Q1753.8 1549.52 1747.32 1549.52 Q1745.15 1549.52 1742.83 1549.08 Q1740.54 1548.66 1738.09 1547.81 L1738.09 1543.29 Q1740.03 1544.43 1742.34 1545.01 Q1744.66 1545.58 1747.18 1545.58 Q1751.58 1545.58 1753.87 1543.85 Q1756.19 1542.11 1756.19 1538.8 Q1756.19 1535.75 1754.03 1534.03 Q1751.9 1532.3 1748.09 1532.3 L1744.06 1532.3 L1744.06 1528.45 L1748.27 1528.45 Q1751.72 1528.45 1753.55 1527.09 Q1755.38 1525.7 1755.38 1523.11 Q1755.38 1520.45 1753.48 1519.03 Q1751.6 1517.6 1748.09 1517.6 Q1746.16 1517.6 1743.96 1518.01 Q1741.77 1518.43 1739.13 1519.31 L1739.13 1515.14 Q1741.79 1514.4 1744.1 1514.03 Q1746.44 1513.66 1748.5 1513.66 Q1753.83 1513.66 1756.93 1516.09 Q1760.03 1518.5 1760.03 1522.62 Q1760.03 1525.49 1758.39 1527.48 Q1756.74 1529.45 1753.71 1530.21 Z" fill="#000000" fill-rule="evenodd" fill-opacity="1" /><path clip-path="url(#clip500)" d="M1779.71 1517.37 Q1776.09 1517.37 1774.27 1520.93 Q1772.46 1524.47 1772.46 1531.6 Q1772.46 1538.71 1774.27 1542.27 Q1776.09 1545.82 1779.71 1545.82 Q1783.34 1545.82 1785.15 1542.27 Q1786.97 1538.71 1786.97 1531.6 Q1786.97 1524.47 1785.15 1520.93 Q1783.34 1517.37 1779.71 1517.37 M1779.71 1513.66 Q1785.52 1513.66 1788.57 1518.27 Q1791.65 1522.85 1791.65 1531.6 Q1791.65 1540.33 1788.57 1544.94 Q1785.52 1549.52 1779.71 1549.52 Q1773.9 1549.52 1770.82 1544.94 Q1767.76 1540.33 1767.76 1531.6 Q1767.76 1522.85 1770.82 1518.27 Q1773.9 1513.66 1779.71 1513.66 Z" fill="#000000" fill-rule="evenodd" fill-opacity="1" /><path clip-path="url(#clip500)" d="M2289.24 1518.36 L2277.43 1536.81 L2289.24 1536.81 L2289.24 1518.36 M2288.01 1514.29 L2293.89 1514.29 L2293.89 1536.81 L2298.82 1536.81 L2298.82 1540.7 L2293.89 1540.7 L2293.89 1548.85 L2289.24 1548.85 L2289.24 1540.7 L2273.64 1540.7 L2273.64 1536.19 L2288.01 1514.29 Z" fill="#000000" fill-rule="evenodd" fill-opacity="1" /><path clip-path="url(#clip500)" d="M2316.55 1517.37 Q2312.94 1517.37 2311.11 1520.93 Q2309.31 1524.47 2309.31 1531.6 Q2309.31 1538.71 2311.11 1542.27 Q2312.94 1545.82 2316.55 1545.82 Q2320.19 1545.82 2321.99 1542.27 Q2323.82 1538.71 2323.82 1531.6 Q2323.82 1524.47 2321.99 1520.93 Q2320.19 1517.37 2316.55 1517.37 M2316.55 1513.66 Q2322.36 1513.66 2325.42 1518.27 Q2328.5 1522.85 2328.5 1531.6 Q2328.5 1540.33 2325.42 1544.94 Q2322.36 1549.52 2316.55 1549.52 Q2310.74 1549.52 2307.66 1544.94 Q2304.61 1540.33 2304.61 1531.6 Q2304.61 1522.85 2307.66 1518.27 Q2310.74 1513.66 2316.55 1513.66 Z" fill="#000000" fill-rule="evenodd" fill-opacity="1" /><polyline clip-path="url(#clip502)" style="stroke:#000000; stroke-linecap:round; stroke-linejoin:round; stroke-width:2; stroke-opacity:0.1; fill:none" points="
  147.478,1334.1 2352.76,1334.1 
  "/>
<polyline clip-path="url(#clip502)" style="stroke:#000000; stroke-linecap:round; stroke-linejoin:round; stroke-width:2; stroke-opacity:0.1; fill:none" points="
  147.478,937.438 2352.76,937.438 
  "/>
<polyline clip-path="url(#clip502)" style="stroke:#000000; stroke-linecap:round; stroke-linejoin:round; stroke-width:2; stroke-opacity:0.1; fill:none" points="
  147.478,540.775 2352.76,540.775 
  "/>
<polyline clip-path="url(#clip502)" style="stroke:#000000; stroke-linecap:round; stroke-linejoin:round; stroke-width:2; stroke-opacity:0.1; fill:none" points="
  147.478,144.113 2352.76,144.113 
  "/>
<polyline clip-path="url(#clip500)" style="stroke:#000000; stroke-linecap:round; stroke-linejoin:round; stroke-width:4; stroke-opacity:1; fill:none" points="
  147.478,1486.45 147.478,47.2441 
  "/>
<polyline clip-path="url(#clip500)" style="stroke:#000000; stroke-linecap:round; stroke-linejoin:round; stroke-width:4; stroke-opacity:1; fill:none" points="
  147.478,1334.1 166.376,1334.1 
  "/>
<polyline clip-path="url(#clip500)" style="stroke:#000000; stroke-linecap:round; stroke-linejoin:round; stroke-width:4; stroke-opacity:1; fill:none" points="
  147.478,937.438 166.376,937.438 
  "/>
<polyline clip-path="url(#clip500)" style="stroke:#000000; stroke-linecap:round; stroke-linejoin:round; stroke-width:4; stroke-opacity:1; fill:none" points="
  147.478,540.775 166.376,540.775 
  "/>
<polyline clip-path="url(#clip500)" style="stroke:#000000; stroke-linecap:round; stroke-linejoin:round; stroke-width:4; stroke-opacity:1; fill:none" points="
  147.478,144.113 166.376,144.113 
  "/>
<path clip-path="url(#clip500)" d="M50.9921 1334.55 L80.6679 1334.55 L80.6679 1338.49 L50.9921 1338.49 L50.9921 1334.55 Z" fill="#000000" fill-rule="evenodd" fill-opacity="1" /><path clip-path="url(#clip500)" d="M91.5706 1347.45 L99.2095 1347.45 L99.2095 1321.08 L90.8993 1322.75 L90.8993 1318.49 L99.1632 1316.82 L103.839 1316.82 L103.839 1347.45 L111.478 1347.45 L111.478 1351.38 L91.5706 1351.38 L91.5706 1347.45 Z" fill="#000000" fill-rule="evenodd" fill-opacity="1" /><path clip-path="url(#clip500)" d="M99.5335 923.237 Q95.9224 923.237 94.0937 926.801 Q92.2882 930.343 92.2882 937.473 Q92.2882 944.579 94.0937 948.144 Q95.9224 951.686 99.5335 951.686 Q103.168 951.686 104.973 948.144 Q106.802 944.579 106.802 937.473 Q106.802 930.343 104.973 926.801 Q103.168 923.237 99.5335 923.237 M99.5335 919.533 Q105.344 919.533 108.399 924.139 Q111.478 928.723 111.478 937.473 Q111.478 946.199 108.399 950.806 Q105.344 955.389 99.5335 955.389 Q93.7234 955.389 90.6447 950.806 Q87.5892 946.199 87.5892 937.473 Q87.5892 928.723 90.6447 924.139 Q93.7234 919.533 99.5335 919.533 Z" fill="#000000" fill-rule="evenodd" fill-opacity="1" /><path clip-path="url(#clip500)" d="M91.5706 554.12 L99.2095 554.12 L99.2095 527.755 L90.8993 529.421 L90.8993 525.162 L99.1632 523.495 L103.839 523.495 L103.839 554.12 L111.478 554.12 L111.478 558.055 L91.5706 558.055 L91.5706 554.12 Z" fill="#000000" fill-rule="evenodd" fill-opacity="1" /><path clip-path="url(#clip500)" d="M95.1586 157.457 L111.478 157.457 L111.478 161.393 L89.5336 161.393 L89.5336 157.457 Q92.1956 154.703 96.7789 150.073 Q101.385 145.42 102.566 144.078 Q104.811 141.555 105.691 139.819 Q106.594 138.059 106.594 136.37 Q106.594 133.615 104.649 131.879 Q102.728 130.143 99.6261 130.143 Q97.4271 130.143 94.9734 130.907 Q92.5428 131.671 89.7651 133.221 L89.7651 128.499 Q92.5891 127.365 95.0428 126.786 Q97.4965 126.208 99.5335 126.208 Q104.904 126.208 108.098 128.893 Q111.293 131.578 111.293 136.069 Q111.293 138.198 110.483 140.12 Q109.696 142.018 107.589 144.61 Q107.01 145.282 103.909 148.499 Q100.807 151.694 95.1586 157.457 Z" fill="#000000" fill-rule="evenodd" fill-opacity="1" /><polyline clip-path="url(#clip502)" style="stroke:#009af9; stroke-linecap:round; stroke-linejoin:round; stroke-width:4; stroke-opacity:1; fill:none" points="
  209.891,937.569 231.339,1445.72 252.787,1427.29 274.235,1409.29 295.683,1392.44 317.131,1376.37 338.579,1361.02 360.027,1346.35 381.475,1332.39 402.923,1318.85 
  424.371,1305.88 445.819,1293.29 467.267,1281.27 488.715,1269.53 510.163,1258.19 531.611,1247.14 553.059,1236.46 574.507,1226.15 595.955,1216.03 617.402,1206.2 
  638.85,1196.67 660.298,1187.28 681.746,1178.19 703.194,1169.33 724.642,1160.7 746.09,1152.14 767.538,1143.92 788.986,1135.82 810.434,1127.78 831.882,1120.08 
  853.33,1112.38 874.778,1104.84 896.226,1097.62 917.674,1090.36 939.122,1083.28 960.57,1076.34 982.018,1069.49 1003.47,1062.83 1024.91,1056.2 1046.36,1049.73 
  1067.81,1043.28 1089.26,1037.06 1110.71,1030.88 1132.15,1024.79 1153.6,1018.82 1175.05,1012.87 1196.5,1007.12 1217.94,1001.39 1239.39,995.72 1260.84,990.15 
  1282.29,984.669 1303.74,979.262 1325.18,973.923 1346.63,968.6 1368.08,963.488 1389.53,958.291 1410.98,953.277 1432.42,948.284 1453.87,243.373 1475.32,240.699 
  1496.77,235.009 1518.22,205.711 1539.66,198.837 1561.11,179.619 1582.56,184.94 1604.01,176.081 1625.46,174.024 1646.9,185.205 1668.35,189.921 1689.8,171.23 
  1711.25,159.968 1732.7,160.935 1754.14,153.738 1775.59,153.39 1797.04,142.998 1818.49,156.209 1839.94,149.761 1861.38,133.449 1882.83,139.925 1904.28,135.89 
  1925.73,144.461 1947.18,133.036 1968.62,133.599 1990.07,147.45 2011.52,122.833 2032.97,124.085 2054.41,120.842 2075.86,134.453 2097.31,118.473 2118.76,126.935 
  2140.21,107.613 2161.65,117.311 2183.1,103.375 2204.55,102.684 2226,102.213 2247.45,98.7942 2268.89,97.1471 2290.34,87.9763 
  "/>
</svg>
